/* XPM */
static char *result[] = {
/* columns rows colors chars-per-pixel */
"64 64 122 2 ",
"   c #010000",
".  c #080604",
"X  c #0D0905",
"o  c #0B0B0B",
"O  c #110C07",
"+  c #120D0B",
"@  c #1C0C0B",
"#  c #16120D",
"$  c #1C140B",
"%  c #151414",
"&  c #1B1612",
"*  c #1C1916",
"=  c #1D1C1B",
"-  c #270B0B",
";  c #2C0D0D",
":  c #340E0E",
">  c #22170D",
",  c #271A0E",
"<  c #281B0F",
"1  c #221B13",
"2  c #2B1E12",
"3  c #211F1C",
"4  c #2E1C1C",
"5  c #3B1111",
"6  c #3C1816",
"7  c #331F1F",
"8  c #2C2114",
"9  c #25201B",
"0  c #292219",
"q  c #342414",
"w  c #3A2616",
"e  c #3E2917",
"r  c #312619",
"t  c #3C251A",
"y  c #34291B",
"u  c #3A2C1C",
"i  c #3E301F",
"p  c #242423",
"a  c #2F2A25",
"s  c #2C2C2C",
"d  c #362121",
"f  c #3D2525",
"g  c #332B21",
"h  c #303030",
"j  c #3F3730",
"k  c gray23",
"l  c #431413",
"z  c #521717",
"x  c #561818",
"c  c #5B1919",
"v  c #611B1B",
"b  c #452E1A",
"n  c #44301C",
"m  c #4B321C",
"M  c #51361E",
"N  c #54391F",
"B  c #4A2D2D",
"V  c #433422",
"C  c #493522",
"Z  c #4D3B26",
"A  c #563A20",
"S  c #5A3C22",
"D  c #533F28",
"F  c #443B33",
"G  c #54422A",
"H  c #5A452C",
"J  c #5C482E",
"K  c #4D433A",
"L  c #5E4D3F",
"P  c #664426",
"I  c #684527",
"U  c #6A4628",
"Y  c #6E4929",
"T  c #744D2C",
"R  c #7A522E",
"E  c #644E32",
"W  c #624F3E",
"Q  c #724F31",
"!  c #675034",
"~  c #685134",
"^  c #66503C",
"/  c #6B523D",
"(  c #755437",
")  c #7E5430",
"_  c #735A39",
"`  c #795E3C",
"'  c #7C613D",
"]  c #464646",
"[  c #564B41",
"{  c #5E5145",
"}  c #7C4C4C",
"|  c #815631",
" . c #865933",
".. c #895C36",
"X. c #865252",
"o. c #8C5656",
"O. c #935A5A",
"+. c #9B5F5F",
"@. c #836641",
"#. c #866942",
"$. c #8B6D45",
"%. c #8F7047",
"&. c #907047",
"*. c #947449",
"=. c #98774B",
"-. c #9C7A4D",
";. c #A07D4F",
":. c #A27F50",
">. c #A76666",
",. c #A58152",
"<. c #AB8655",
"1. c #AF8957",
"2. c #B08957",
"3. c gray52",
"4. c #888888",
"5. c gray61",
"6. c gray63",
"7. c gray66",
"8. c #C5C5C5",
"9. c #EEEEEE",
"0. c #F5F5F5",
"q. c #3F824F",
/* pixels */
"q.q.q.q.q.q.q.q.q.q.q.q.q.q.q.q.q.q.q.q.q.q.q.q.q.q.q.q.q.q.q.q.q.q.q.q.q.q.q.q.q.q.q.q.q.q.q.q.q.q.q.q.q.q.q.q.q.q.q.q.q.q.q.q.",
"q.q.q.q.q.q.q.q.q.q.q.q.q.q.q.q.q.q.q.q.q.q.q.q.q.q.q.q.q.q.q.q.  7   q.q.q.q.q.q.q.q.q.q.q.q.q.q.q.q.q.q.q.q.q.q.q.q.q.q.q.q.q.",
"q.q.q.q.q.q.q.q.q.q.q.q.q.q.q.q.q.q.q.q.q.q.q.q.q.q.q.q.q.q.q.  o.+ X.  q.q.q.q.q.q.q.q.q.q.q.q.q.q.q.q.q.q.q.q.q.q.q.q.q.q.q.q.",
"q.q.q.q.q.q.q.q.q.q.q.q.q.q.q.q.q.q.q.q.q.q.q.q.q.q.q.q.q.q.q.  o.  B   q.      q.q.q.q.q.q.q.q.q.q.q.q.q.q.q.q.q.q.q.q.q.q.q.q.",
"q.q.q.q.q.q.q.q.q.q.q.q.q.q.q.q.q.q.q.q.q.q.q.q.q.q.q.q.q.q.q.  f . . + . o.>.O.  q.q.q.q.q.q.q.q.q.q.q.q.q.q.q.q.q.q.q.q.q.q.q.",
"q.q.q.q.q.q.q.q.q.q.q.q.q.q.q.q.q.q.q.q.q.q.q.q.q.    . $ > , $ O B   4 }     f d q.q.q.q.q.q.q.q.q.q.q.q.q.q.q.q.q.q.q.q.q.q.q.",
"q.q.q.q.q.q.q.q.q.q.q.q.q.q.q.q.q.q.q.q.q.q.q.q.  . N A A A A N N N N 4     + +.X q.q.q.q.q.q.q.q.q.q.q.q.q.q.q.q.q.q.q.q.q.q.q.",
"q.q.q.q.q.q.q.q.q.q.q.q.q.q.q.q.q.q.q.q.q.q.q.q.  N N A A A A S A N R |  .> +     q.q.q.q.q.q.q.q.q.q.q.q.q.q.q.q.q.q.q.q.q.q.q.",
"q.q.q.q.q.q.q.q.q.q.q.q.q.q.q.q.q.q.q.q.q.q.q.  q M N N A A A A N S  .| R |   q.q.q.q.q.q.q.q.q.q.q.q.q.q.q.q.q.q.q.q.q.q.q.q.q.",
"q.q.q.q.q.q.q.q.q.q.q.q.q.q.q.q.q.q.q.q.q.q.q.  S M N A A A A A A R  .R T T R   q.q.q.q.q.q.q.q.q.q.q.q.q.q.q.q.q.q.q.q.q.q.q.q.",
"q.q.q.q.q.q.q.q.q.q.q.q.q.q.q.q.q.q.q.q.q.q.q.. N M N A A A A A A  .| R T Y Y 2   q.q.q.q.q.q.q.q.q.q.q.q.q.q.q.q.q.q.q.q.q.q.q.",
"q.q.q.q.q.q.q.q.q.q.q.q.q.q.q.q.q.q.q.q.q.q.q.$ M M N A A A A A S  .| R R Y P )   q.q.q.q.q.q.q.q.q.q.q.q.q.q.q.q.q.q.q.q.q.q.q.",
"q.q.q.q.q.q.q.q.q.q.q.q.q.q.q.q.q.q.q.q.q.q.  b A m q e b q b A T | | R T Y I T   q.q.q.q.q.q.q.q.q.q.q.q.q.q.q.q.q.q.q.q.q.q.q.",
"q.q.q.q.q.q.q.q.q.q.q.q.q.q.q.q.q.q.q.q.q.q.  w M ) T Y T R  .P b  .) T T I I Y . q.q.q.q.q.q.q.q.q.q.q.q.q.q.q.q.q.q.q.q.q.q.q.",
"q.q.q.q.q.q.q.q.q.q.q.q.q.q.q.q.q.q.q.q.    q 2 + p s s s s = & I m T R Y I I I X q.q.q.q.q.q.q.q.q.q.q.q.q.q.q.q.q.q.q.q.q.q.q.",
"q.q.q.q.q.q.q.q.q.q.q.q.q.q.q.q.q.q.q.    e A = h h h h h h h h s = P A Y I I I O q.q.q.q.q.q.q.q.q.q.q.q.q.q.q.q.q.q.q.q.q.q.q.",
"q.q.q.q.q.q.q.q.q.q.q.q.q.q.q.q.q.q.q.. A A A p h h h h h h h h h h s 2 A I I I O q.q.q.q.q.q.q.q.q.q.q.q.q.q.q.q.q.q.q.q.q.q.q.",
"q.q.q.q.q.q.q.q.q.q.q.q.q.q.q.q.q.q.q.. m A A 3 h h 9.h h h h 7.k h h s % P I I O q.q.q.q.q.q.q.q.q.q.q.q.q.q.q.q.q.q.q.q.q.q.q.",
"q.q.q.q.q.q.q.q.q.q.q.q.q.q.q.q.q.q.q.        % h k 0.k h h h 0.4.h h s s % I I O q.q.q.q.q.q.q.q.q.q.q.q.q.q.q.q.q.q.q.q.q.q.q.",
"q.q.q.q.q.q.q.q.q.q.q.q.q.q.q.q.q.q.q.q.q.q.q.o h k 0.] h h h 0.6.s s p p p = b X q.q.q.q.q.q.q.q.q.q.q.q.q.q.q.q.q.q.q.q.q.q.q.",
"q.q.q.q.q.q.q.q.q.q.q.q.q.q.q.q.q.q.q.q.q.q.q.o h h 0.k h h h 9.3.s s s p p h m w   q.q.q.q.q.q.q.q.q.q.q.q.q.q.q.q.q.q.q.q.q.q.",
"q.q.q.q.q.q.q.q.q.q.q.q.q.q.q.q.q.q.q.q.q.q.q.o h h 8.h h h h 5.k s s p p p s m M   q.q.q.q.q.q.q.q.q.q.q.q.q.q.q.q.q.q.q.q.q.q.",
"q.q.q.q.q.q.q.q.q.q.q.q.q.q.q.q.q.q.q.q.    . & 3 3 s h h h h h h 4 G #.:.<.2.1.-.  q.q.q.q.q.q.q.q.q.q.q.q.q.q.q.q.q.q.q.q.q.q.",
"q.q.q.q.q.q.q.q.q.q.q.q.q.q.q.q.q.q.q.q.  <.1.1.1.1.= h h h h h h <.1.1.1.1.2.1.,.  q.q.q.q.q.q.q.q.q.q.q.q.q.q.q.q.q.q.q.q.q.q.",
"q.q.q.q.q.q.q.q.q.q.q.q.q.q.q.q.q.q.q.    Z ~ *.2.2.3 h 1 h h h s 1.1.1.1.1.1.1.*.  q.q.q.q.q.q.q.q.q.q.q.q.q.q.q.q.q.q.q.q.q.q.",
"q.q.q.q.q.q.q.q.q.q.q.q.q.q.q.q.q.q.  Q P P P P A <.V D 1 h h h p 1.1.1.1.1.1.2.J   q.q.q.q.q.q.q.q.q.q.q.q.q.q.q.q.q.q.q.q.q.q.",
"q.q.q.q.q.q.q.q.q.q.q.q.q.q.q.q.q.q.X .. .R R |  .0 K V h h h h = 1.1.1.2.1.1.1.. q.q.q.q.q.q.q.q.q.q.q.q.q.q.q.q.q.q.q.q.q.q.q.",
"q.q.q.q.q.q.q.q.q.q.q.q.q.q.q.q.q.q.. .... . . . .F K @ * s p 6 G 1.1.1.1.1.1.,.  q.q.q.q.q.q.q.q.q.q.q.q.q.q.q.q.q.q.q.q.q.q.q.",
"q.q.q.q.q.q.q.q.q.q.q.q.q.q.q.q.q.q.. / { W L W ( K J 6 l v ; v _ 1.1.1.1.1.1.1.y   q.q.q.q.q.q.q.q.q.q.q.q.q.q.q.q.q.q.q.q.q.q.",
"q.q.q.q.q.q.q.q.q.q.q.q.q.q.q.q.q.q.  { W ^ W L [ g 1.x 5 c - c H 1.1.1.1.1.1.1.<.  q.q.q.q.q.q.q.q.q.q.q.q.q.q.q.q.q.q.q.q.q.q.",
"q.q.q.q.q.q.q.q.q.q.q.q.q.q.q.q.q.q.  [ [ [ [ [ F ,.-.x : x - z C 1.1.1.1.1.1.1.1.E   q.q.q.q.q.q.q.q.q.q.q.q.q.q.q.q.q.q.q.q.q.",
"q.q.q.q.q.q.q.q.q.q.q.q.q.q.q.q.q.q.q.  g F F y ;.1.! x z ; - x t 1.1.1.1.1.1.1.<.<.  q.q.q.q.q.q.q.q.q.q.q.q.q.q.q.q.q.q.q.q.q.",
"q.q.q.q.q.q.q.q.q.q.q.q.q.q.q.q.q.q.q.q.$ 1.1.1.1.1.r 9 s h h s 9 1.1.1.1.1.1.1.<.,.'   q.q.q.q.q.q.q.q.q.q.q.q.q.q.q.q.q.q.q.q.",
"q.q.q.q.q.q.q.q.q.q.q.q.q.q.q.q.q.q.q.  $.1.1.1.1.1.% h h h h s # 1.1.1.1.1.1.<.,.:.:.. q.q.q.q.q.q.q.q.q.q.q.q.q.q.q.q.q.q.q.q.",
"q.q.q.q.q.q.q.q.q.q.q.q.q.q.q.q.q.q.q.  2.1.1.1.1.1.P s h h h s w 1.1.1.1.1.<.<.:.-.*.@.  q.q.q.q.q.q.q.q.q.q.q.q.q.q.q.q.q.q.q.",
"q.q.q.q.q.q.q.q.q.q.q.q.q.q.q.q.q.q.q.y <.1.2.1.1.<.A 1 h h h 8 U 2.1.1.1.<.1.,.;.=.*.-.. q.q.q.q.q.q.q.q.q.q.q.q.q.q.q.q.q.q.q.",
"q.q.q.q.q.q.q.q.q.q.q.q.q.q.q.q.q.q.  =.<.<.1.1.1.*., N p h p N S 2.2.1.1.<.<.,.-.*.*.$.#.  q.q.q.q.q.q.q.q.q.q.q.q.q.q.q.q.q.q.",
"q.q.q.q.q.q.q.q.q.q.q.q.q.q.q.q.q.q.  ,.,.,.2.1.1.~ A < e h q <  .,.2.1.<.,.,.;.=.&.$.#.-.  q.q.q.q.q.q.q.q.q.q.q.q.q.q.q.q.q.q.",
"q.q.q.q.q.q.q.q.q.q.q.q.q.q.q.q.q.q.r -.,.,.<.<.1.Z N N q O < N  .*.2.1.<.,.,.-.*.&.$.#.#.H   q.q.q.q.q.q.q.q.q.q.q.q.q.q.q.q.q.",
"q.q.q.q.q.q.q.q.q.q.q.q.q.q.q.q.q.  #.=.-.:.<.<.1.n A N N q N S  ._ 1.<.<.,.;.*.*.$.#.#.#.,.  q.q.q.q.q.q.q.q.q.q.q.q.q.q.q.q.q.",
"q.q.q.q.q.q.q.q.q.q.q.q.q.q.q.q.q.  ,.*.*.-.,.,.1.e R R R P R R P Z 1.,.,.,.-.*.$.$.#.#.#.,.  q.q.q.q.q.q.q.q.q.q.q.q.q.q.q.q.q.",
"q.q.q.q.q.q.q.q.q.q.q.q.q.q.q.q.q.  :.$.*.-.-.;.1.n  . . .N 6 R N q 1.<.,.-.*.%.$.$.#.#.#.,.  q.q.q.q.q.q.q.q.q.q.q.q.q.q.q.q.q.",
"q.q.q.q.q.q.q.q.q.q.q.q.q.q.q.q.q.  @.$.%.&.*.-.1.M  . . .w c P N w ,.,.-.=.*.$.$.#.#.@.#.,.  q.q.q.q.q.q.q.q.q.q.q.q.q.q.q.q.q.",
"q.q.q.q.q.q.q.q.q.q.q.q.q.q.q.q.q.q.u #.$.$.*.*.,.M  . . .| |  .N m 1.,.-.*.%.$.#.#.#.#.#.=.  q.q.q.q.q.q.q.q.q.q.q.q.q.q.q.q.q.",
"q.q.q.q.q.q.q.q.q.q.q.q.q.q.q.q.q.q.. $.$.$.$.*.#.M R | | R | R M m ,.-.=.&.%.$.#.#.#.#.#.H   q.q.q.q.q.q.q.q.q.q.q.q.q.q.q.q.q.",
"q.q.q.q.q.q.q.q.q.q.q.q.q.q.q.q.q.q.  i -.#.$.$.! m R R T N R R m n ' =.*.%.#.#.#.@.#.$.%.  q.q.q.q.q.q.q.q.q.q.q.q.q.q.q.q.q.q.",
"q.q.q.q.q.q.q.q.q.q.q.q.q.q.q.q.q.q.q.  * C @.-.C T m m 9 p M m Y Y m =.%.$.$.$.=.,.` u   q.q.q.q.q.q.q.q.q.q.q.q.q.q.q.q.q.q.q.",
"q.q.q.q.q.q.q.q.q.q.q.q.q.q.q.q.q.q.q.  H ! 0 p T P n % h h * m I I e G ! J Z 8 i J ~ !   q.q.q.q.q.q.q.q.q.q.q.q.q.q.q.q.q.q.q.",
"q.q.q.q.q.q.q.q.q.q.q.q.q.q.q.q.q.q.q.  ~ ~ ! p R I 2 s h h s 2 I I I P Y 3 p E ! ~ ~ ~ . q.q.q.q.q.q.q.q.q.q.q.q.q.q.q.q.q.q.q.",
"q.q.q.q.q.q.q.q.q.q.q.q.q.q.q.q.q.q.q.  ~ ~ ~ V T U p s h h h s b I P P T 3 H ! ! ~ ! ~ O q.q.q.q.q.q.q.q.q.q.q.q.q.q.q.q.q.q.q.",
"q.q.q.q.q.q.q.q.q.q.q.q.q.q.q.q.q.q.q.# ! ~ ~ ! m 2 s s h s h s s A P P R H ! ~ ~ ~ ~ ~ 1 q.q.q.q.q.q.q.q.q.q.q.q.q.q.q.q.q.q.q.",
"q.q.q.q.q.q.q.q.q.q.q.q.q.q.q.q.q.q.  u ~ ~ ~ ! y p s s s s s s s p Z S C ! ! ! ~ ~ ~ ~ r   q.q.q.q.q.q.q.q.q.q.q.q.q.q.q.q.q.q.",
"q.q.q.q.q.q.q.q.q.q.q.q.q.q.q.q.q.q.  Z ~ ! ~ ~ J p p p s p s p p p = q r ! ! ~ ~ ~ ~ ~ V   q.q.q.q.q.q.q.q.q.q.q.q.q.q.q.q.q.q.",
"q.q.q.q.q.q.q.q.q.q.q.q.q.q.q.q.q.q.  J ~ ~ E Z 9 = p p p p p p = = = = + y G E ~ ~ ~ ~ Z   q.q.q.q.q.q.q.q.q.q.q.q.q.q.q.q.q.q.",
"q.q.q.q.q.q.q.q.q.q.q.q.q.q.q.q.q.q.  u O         o % % = % % % % % o o           1 J ~ H   q.q.q.q.q.q.q.q.q.q.q.q.q.q.q.q.q.q.",
"q.q.q.q.q.q.q.q.q.q.q.q.q.q.q.q.q.q.q.  q.q.q.q.q.. o o o o o o o o o .   q.q.q.q.      0   q.q.q.q.q.q.q.q.q.q.q.q.q.q.q.q.q.q.",
"q.q.q.q.q.q.q.q.q.q.q.q.q.q.q.q.q.q.q.q.q.q.        .   . . .   .               q.q.q.q.  q.q.q.q.q.q.q.q.q.q.q.q.q.q.q.q.q.q.q.",
"q.q.q.q.q.q.q.q.q.q.q.q.q.q.q.q.q.q.q.                                                  q.q.q.q.q.q.q.q.q.q.q.q.q.q.q.q.q.q.q.q.",
"q.q.q.q.q.q.q.q.q.q.q.q.q.q.q.q.q.q.                                                      q.q.q.q.q.q.q.q.q.q.q.q.q.q.q.q.q.q.q.",
"q.q.q.q.q.q.q.q.q.q.q.q.q.q.q.q.q.q.                                                      q.q.q.q.q.q.q.q.q.q.q.q.q.q.q.q.q.q.q.",
"q.q.q.q.q.q.q.q.q.q.q.q.q.q.q.q.q.q.q.                                                  q.q.q.q.q.q.q.q.q.q.q.q.q.q.q.q.q.q.q.q.",
"q.q.q.q.q.q.q.q.q.q.q.q.q.q.q.q.q.q.q.q.q.q.                                      q.q.q.q.q.q.q.q.q.q.q.q.q.q.q.q.q.q.q.q.q.q.q.",
"q.q.q.q.q.q.q.q.q.q.q.q.q.q.q.q.q.q.q.q.q.q.q.q.q.q.q.q.q.q.q.q.q.q.q.q.q.q.q.q.q.q.q.q.q.q.q.q.q.q.q.q.q.q.q.q.q.q.q.q.q.q.q.q.",
"q.q.q.q.q.q.q.q.q.q.q.q.q.q.q.q.q.q.q.q.q.q.q.q.q.q.q.q.q.q.q.q.q.q.q.q.q.q.q.q.q.q.q.q.q.q.q.q.q.q.q.q.q.q.q.q.q.q.q.q.q.q.q.q."
};
