/* XPM */
static char *result[] = {
/* columns rows colors chars-per-pixel */
"64 64 243 2 ",
"   c #0E162A",
".  c #141B2C",
"X  c #151A29",
"o  c #141D33",
"O  c #141D38",
"+  c #0D1635",
"@  c #162035",
"#  c #1A2234",
"$  c #16213B",
"%  c #1A243B",
"&  c #22293C",
"*  c #141D40",
"=  c #1A2542",
"-  c #1E2A44",
";  c #1C2949",
":  c #1E265A",
">  c #222C44",
",  c #222C4B",
"<  c #25314D",
"1  c #29334B",
"2  c #283146",
"3  c #232D57",
"4  c #253254",
"5  c #2A3553",
"6  c #2D3955",
"7  c #26355B",
"8  c #29355A",
"9  c #2D3B5C",
"0  c #303D5B",
"q  c #303B55",
"w  c #1E2761",
"e  c #222D6A",
"r  c #2D3B63",
"t  c #2A3669",
"y  c #303E66",
"u  c #293776",
"i  c #323E74",
"p  c #222C77",
"a  c #344364",
"s  c #34446B",
"d  c #3A4A6C",
"f  c #38476A",
"g  c #344473",
"h  c #364973",
"j  c #3C4D74",
"k  c #38487A",
"l  c #3E527A",
"z  c #3E5174",
"x  c #2E416E",
"c  c #354159",
"v  c #43547C",
"b  c #425472",
"n  c #414F78",
"m  c #0B268E",
"M  c #163899",
"N  c #102F94",
"B  c #293B86",
"V  c #283C91",
"C  c #113BA4",
"Z  c #1A439E",
"A  c #374987",
"S  c #3E5289",
"D  c #384C95",
"F  c #3B5197",
"G  c #284796",
"H  c #1C4CAA",
"J  c #1744A5",
"K  c #1C57B7",
"L  c #1553B1",
"P  c #274BA6",
"I  c #2451AA",
"U  c #3B57A5",
"Y  c #235AB3",
"T  c #374CA2",
"R  c #1B65B9",
"E  c #2668B9",
"W  c #346FBA",
"Q  c #425483",
"!  c #445B8B",
"~  c #465A88",
"^  c #4A5D94",
"/  c #455B9C",
"(  c #435895",
")  c #404C84",
"_  c #4D6287",
"`  c #52658B",
"'  c #4C6393",
"]  c #4B639B",
"[  c #49649D",
"{  c #536B9C",
"}  c #556996",
"|  c #5B7398",
" . c #445BA7",
".. c #4B62A3",
"X. c #4966A9",
"o. c #546BA7",
"O. c #5A74AB",
"+. c #5974A7",
"@. c #476AB4",
"#. c #536EB3",
"$. c #5B75B4",
"%. c #5D7CBB",
"&. c #5777B7",
"*. c #4E78B9",
"=. c #6179A9",
"-. c #617DB4",
";. c #1B76C2",
":. c #2779C3",
">. c #367EC5",
",. c #236AC2",
"<. c #497AC6",
"1. c #597AC2",
"2. c #5A82BE",
"3. c #6684B9",
"4. c #6E89B3",
"5. c #2987C8",
"6. c #358BCB",
"7. c #3A87C9",
"8. c #3B95CB",
"9. c #3F83D0",
"0. c #37A2D3",
"q. c #468BCA",
"w. c #5384C3",
"e. c #5C84C2",
"r. c #5B8BC5",
"t. c #588BC9",
"y. c #4B94CC",
"u. c #4597CC",
"i. c #529BCD",
"p. c #5996CA",
"a. c #4A97D2",
"s. c #5495D3",
"d. c #549CD2",
"f. c #5B99D5",
"g. c #4E89D2",
"h. c #6385C3",
"j. c #638BC5",
"k. c #688CC7",
"l. c #6B94CD",
"z. c #6798CC",
"x. c #7394C5",
"c. c #7798CB",
"v. c #6495D1",
"b. c #639CD3",
"n. c #6B9BD4",
"m. c #6A99D5",
"M. c #749BD2",
"N. c #779FD4",
"B. c #718ECA",
"V. c #4CA8D6",
"C. c #52A3D4",
"Z. c #5BA4D3",
"A. c #5BAAD5",
"S. c #5BADDB",
"D. c #57A7D9",
"F. c #5CB3DB",
"G. c #58B1D9",
"H. c #53A4CD",
"J. c #62A2CE",
"K. c #64A3D4",
"L. c #6CA3D4",
"P. c #6CACD6",
"I. c #63ACDA",
"U. c #6BACDB",
"Y. c #66A7D8",
"T. c #74ACD5",
"R. c #74ADDB",
"E. c #7BACDB",
"W. c #79A7D5",
"Q. c #63B4DC",
"!. c #6CB4DC",
"~. c #64BADD",
"^. c #6CBBDD",
"/. c #66B4D4",
"(. c #73B4DB",
"). c #7CB3DC",
"_. c #72BCDE",
"`. c #7CBCDD",
"'. c #7AB3D4",
"]. c #7EA1CE",
"[. c #6BB7E2",
"{. c #6BBDE3",
"}. c #64B8E2",
"|. c #74BDE2",
" X c #7CBCE2",
".X c #76B4E2",
"XX c #70AAE2",
"oX c #6695E0",
"OX c #79C2DF",
"+X c #6FC2DE",
"@X c #6DC3E2",
"#X c #74C4E4",
"$X c #7BC4E3",
"%X c #7CCAE5",
"&X c #77C8E7",
"*X c #78D5E7",
"=X c #78E5EA",
"-X c #83A9D8",
";X c #84B4DC",
":X c #87B7DA",
">X c #93B8DA",
",X c #8AA7CF",
"<X c #84BEE3",
"1X c #8ABAE2",
"2X c #92BEE1",
"3X c #92ADD0",
"4X c #8CC4DE",
"5X c #85C2DE",
"6X c #9BC3DD",
"7X c #94C5DD",
"8X c #96D2D9",
"9X c #A8C6DD",
"0X c #83C3E3",
"qX c #8CC4E3",
"wX c #84CBE5",
"eX c #8BCBE4",
"rX c #83CEE9",
"tX c #8ACAE8",
"yX c #94C3E3",
"uX c #94CCE4",
"iX c #9BCCE3",
"pX c #9BC6E3",
"aX c #8CD3E6",
"sX c #88D6E8",
"dX c #93D3E5",
"fX c #9BD3E5",
"gX c #9CDBE6",
"hX c #95DBE9",
"jX c #98D9E7",
"kX c #A6CAE2",
"lX c #A3D2E4",
"zX c #A3DBE6",
"xX c #ABDCE6",
"cX c #A7D7E7",
"vX c #B4DCE5",
"bX c #B9DBE8",
"nX c #99E2E9",
"mX c #8EE5EA",
"MX c #B5E2E8",
"NX c #AAE0E7",
"BX c #C1DDE8",
"VX c #C5E1E8",
"CX c None",
/* pixels */
"CXCXCXCXCXCXCXCXCXCXCXCXCXCXCXCXCXCXCXCXCXCXCXCXCXCXCXCXCXCXCXCXCXCXCXCXCXCXCXCXCXCXCXCXCXCXCXCXCXCXCXCXCXCXCXCXCXCXCXCXCXCXCXCX",
"CXCXCXCXCXCXCXCXCXCXCXCXCXCXCXCXCXCXCXCXCXCXCXCXCXCXCXCXCXCXCXCXCXCXCXCXCXCXCXCXCXCXCXCXCXCXCXCXCXCXCXCXCXCXCXCXCXCXCXCXCXCXCXCX",
"CXCXCXCXCXCXCXCXCXCXCXCXCXCXCXCXCXCXCXCXCXCXCXCXCXCXCXCXCXCXCXCXCXCXCXCXCXCXCXCXCXCXCXCXCXCXCXCXCXCXCXCXCXCXCXCXCXCXCXCXCXCXCXCX",
"CXCXCXCXCXCXCXCXCXCXCXCXCXCXCXCXCXCXCXCXCXCXCXCXCXCXCXCXCXCXCXCXCXCXCXCXCXCXCXCXCXCXCXCXCXCXCXCXCXCXCXCXCXCXCXCXCXCXCXCXCXCXCXCX",
"CXCXCXCXCXCXCXCXCXCXCXCXCXCXCXCXCXCXCXCXCXCXCXCXCXCXCXCXCXCXCXCXCXCXCXCXCXCXCXCXCXCXCXCXCXCXCXCXCXCXCXCXCXCXCXCXCXCXCXCXCXCXCXCX",
"CXCXCXCXCXCXCXCXCXCXCXCXCXCXCXCXCXCXCXCXCXCXCXCXCXCX$ $ % 4 - > # > @ $ o % CXCXCXCXCXCXCXCXCXCXCXCXCXCXCXCXCXCXCXCXCXCXCXCXCXCX",
"CXCXCXCXCXCXCXCXCXCXCXCXCXCXCXCXCXCXCXCXCX$ 4 CX2 % < _ j j < 4.+.z 2 6 6 < o % % , = CXCXCXCXCXCXCXCXCXCXCXCXCXCXCXCXCXCXCXCXCX",
"CXCXCXCXCXCXCXCXCXCXCXCXCXCXCXCXCXCXCXCX.   . # s d _ l z _ { 9 5 l 2 b a q 6 > a 9 o 7 @ CXCXCXCXCXCXCXCXCXCXCXCXCXCXCXCXCXCXCX",
"CXCXCXCXCXCXCXCXCXCXCXCXCXCXCXCXCXCX, % > 5 z ! ^ 4.>Xn n n j ^ 4.j b =.f q 0 2 y k r < %   7 CXCXCXCXCXCXCXCXCXCXCXCXCXCXCXCXCX",
"CXCXCXCXCXCXCXCXCXCXCXCXCXCXCXCXo   , = 8 U X.a Q ` { { ^ 4.$.c.*.W.' ' g y D 4 5 k @.i 4 % %   CXCXCXCXCXCXCXCXCXCXCXCXCXCXCXCX",
"CXCXCXCXCXCXCXCXCXCXCXCXCXCXCX% # 1 & y f / o.' ^ n h ^ Q -.-X-X%.W.E.+.-.} i ) k g B t k S r 7 = CXCXCXCXCXCXCXCXCXCXCXCXCXCXCX",
"CXCXCXCXCXCXCXCXCXCXCXCXCXCXCX@ 5 1 & 1 ..j O.4.-.-.,Xo.-.] %.c.c.yX>X].N.kX-.o.h.k y t X.h [ u 7 < CXCXCXCXCXCXCXCXCXCXCXCXCXCX",
"CXCXCXCXCXCXCXCXCXCXCXCXCXCX% > | 2 b f n 4.^ B.-.N.N.-.gX X).M.B.iXqXU.v.v.bX-X| Q } i A  .O.s 9 < 9 o CXCXCXCXCXCXCXCXCXCXCXCX",
"CXCXCXCXCXCXCXCXCXCXCX$ < @ h 6 2 q f ^ } O.,X2Xk.-Xh.k.N.(.T.%XhX:Xl.v.2.1.R.x.3X-X3.^  .i { i a j - o CXO CXCXCXCXCXCXCXCXCXCX",
"CXCXCXCXCXCXCXCXCXCXCX7 r d } 6 n ~ O.] ,XB.kXkXc.N.c.cXM.-X;X$XhX_.j.$.'.v.j.vX-X2Xl.B.,X .T 8 [ 4 +.< CXCXCXCXCXCXCXCXCXCXCXCX",
"CXCXCXCXCXCXCXCXCXCXCXo 8 h 0 q y n $.bX,XM.>XkX3.E.-.T.sX`.>X2X].W.p.`.U.dXr.*XR.lX1X;Xh.$.F k t l a 5 ; < CXCXCXCXCXCXCXCXCXCX",
"CXCXCXCXCXCXCXCXCX. % s s h ~ ^ ) h.l.1XW.-X>X:XE.eXL.0X5XNXhXqXpXcX3XbXeXK.U.yXp.L.rXuX1XN. ./ A A 5 b 5 6 CXCXCXCXCXCXCXCXCXCX",
"CXCXCXCXCXCXCXCXCX, - 9 q o.! D ..N..Xn.n.yX;XiXT.6XqXnXNXVXdXtXBXcXpX2XbXvX X|.J.*.e.l.XX2X:X$.k t Q v Q a CXCXCXCXCXCXCXCXCXCX",
"CXCXCXCXCXCXCXCXo % 8 y g A  . .#.l.eXe.E.cX;XqXxXdXzXNXzXjXVXuXVXkX0XcXbXfXhXaXP.+Xr.j.v.1X1XW. .A X. .{ j o O CXCXCXCXCXCXCXCX",
"CXCXCXCXCXCXCXCXo > > 8 t ( / kX;XpXL.%.U.xXbX5XdXlX0X7XI.U.R.Y.K.2X).pX>X>XcXeX*XdX|.s..XXXtX.Xc.X.j.&.%.` n X CXCXCXCXCXCXCXCX",
"CXCXCXCXCXCXCXCXO & g S ( #.M.cXfX).5XK.E.bXaXkX7X:Xs..X|.pXC.y.g.s.!.U.`.W.yX.XaXsXgXZ.Q.rXY.MXE.c.o.i D r y q % CXCXCXCXCXCXCX",
"CXCXCXCXCXCXCXCX1 h t $.#.XX-XyX.X$.U.L.NXwXdXwXxXwX(.s.K.`.$X~.V.Q.S.f.U.b.v.9XlXlXMX5XU.L.#X[..X1X$.Q g v q # CXCXCXCXCXCXCXCX",
"CXCXCXCXCXCXCX@ +.y ( o.-XM..X.Xl.U.I.sXhXzXeXhX#X X'.9XY.G.S.y.T.y.K.Q.uXQ.>.1.`.uXbXzX0XwXuXQ.tXbX1.-.~ _ q 0 6 o CXCXCXCXCXCX",
"CXCXCXCXCXCXCXh ` 8 ) 1.<.-X.XzXtXY.*XsXfXqXzXdX^.>XZ.!.(.I.I.`.T.b.s.d.n.!.[.w.<.qX%XVXdXnXY.%X|.MXtXh.+.y ~ a 9 CXCXCXCXCXCXCX",
"CXCXCXCXCXCX< 0 _ s &.F 1.E.yXhXmX%XrXdXzXwX(.>X(.u.Z.i.L.Z.b.l.t.>X6.b.p.K.(.^.g.(.eXBXMXjX_.[.&XcXXXE.^ ) ~ v & . CXCXCXCXCXCX",
"CXCXCXCXCX4 s f } } A o.%.iXtXyXtX*XnXxXuXD.Y.s.!.T.A.b.s.>.:.7.>.w.r.y.u.a.s.Q.}.y.(.bXxX&X*XQ.{.tX2X-X$.k { 0 2 % CXCXCXCXCXCX",
"CXCXCXCX; @ 5 6 v =.( 3.W.W.$Xn.[.rXMXbX:XY.T.F.A./.p.H.6.,.E :.K Y ,.w.5.8.f.J.Q.uXA.VXiXaX{.I.S.D.1XN.M.O.f h f < 4 CXCXCXCXCX",
"CXCXCXCX$ @ 2 1 ` +.:Xw.j.).l.p.gXdXMXiX6Xd.C.~.F.p.q.7.,.W E E I Y W T :.8.7.d.q.Q.+X5X;X6X$XsX&XtXk.W.>X#.o.y z 0 % CXCXCXCXCX",
"CXCXCXCXCX@ 1 f q f &.>XM.2.W.{.0XgXMXwX).(.5X^.u.7.>.R R J Z M Z P J J U 6.8.H.G./.fX4X6X9X#X=XsX|.T.m.c.c.S r 1 d % CXCXCXCXCX",
"CXCXCXCXCX> 5 a b c o.W.r.3.%XtX XgXzXfX:XS.0Xy.q.7.:.Y N m M J J M M V P E H.J.A.+X+X^.;X9X#XsX[.S.E.l.%.o.r ( a 6 - CXCXCXCXCX",
"CXCXCXCXCXx # c a v 3.z.j.t.|.tX%XrXhX[.F.}.F.q.u.8.:.M N C P @.E I V B G R +Xu.T.G.C.OXL.;XhXmXsXI.eX>X3.o.! S c ' 5 CXCXCXCXCX",
"CXCXCXCX= < & 3.n =.,Xe.[. Xw.[.$XsXzX Xa.@XV.q.V.5.I N Z L W q.H.:.T M Z W /./.a.G.~.4XT.7XdXmX@X|.<XiXk.c.j.[ 6 +.- CXCXCXCXCX",
"CXCXCXCXCXX & | | ~ 3.m.m.aXv.f.aXhXhXlXF.[.i.6.V.>.Z M P U w.P.8X5.K M I 5./.F././.^.(.'.8XdX%X%X|.hXU.n.-X3.A 2 9 @ o CXCXCXCX",
"CXCXCXCXO CX# b v $.h.$.E.&X|.Y.zXnXwX:X~.Q.7.q.G.W P M C I R :.6.E L C H R q.V.F.'.@XZ.;X5XlXmXsXzXgX6X3.X.F { z 0 X CXCXCXCXCX",
"CXCXCXCXCXo & a c d 1.$.%.e.t.qXvXMXtX}.f.F.C.7.V.E L M C C P K R I M J H 5.p.V.P.J.}.;XT.(.cXhXrXbXW.B.yX#.[ 4 Q > @ CXCXCXCXCX",
"CXCXCXCXCXCXX b q a v.o.1.K.[.f.jXhX#X|.f.}.V.6.0.6.E M m m M C M M H J R E H.H.d.P.F.u.y.L.vXwXrX<X).j.B.X.D g 6 a . CXCXCXCXCX",
"CXCXCXCXCXCX6 q 0 x.o.$.sX$X.XI.sXfXhXeXf.(.yXp.5.C.;.J M m N m Z L Z Z H >.3.+Xs.C.F.q.;XkXtX#Xe..XtXP.kX/ F ; 2 z o CXCXCXCXCX",
"CXCXCXCXCXCXo 1 v ^ O.4.zXR.zX{.I.%X$X!.8XT.|.Z.q.7.G.:.I m N N Z N G G X.u.A.H.C.V.C.(.:X).lXsXwXeX/.7XpX@.p t 2 @ < = CXCXCXCX",
"CXCXCXCXCXCX, 0 _ g ] #.<XzXtX[.K.~.eXaX4X7X).!.u.7.u.V.6.H N N Z W 5.u./.V./.i./.!.T.K.6XW.0XK.!.I.x.e.#.D V A < # CXCXCXCXCXCX",
"CXCXCXCXCXCX4 2 & 1 h h.&.m.sXg.d.}.~.uX).dX'.Q.OXV.q.a.6.5.Y L I >.u.V./.~.8.J.Q.$X!.(.W.>Xm.$X<XL.v.z.T X.w g s x CXCXCXCXCXCX",
"CXCXCXCXCXCX@ # & ~ g ! 2Xh.Y.Y.&X}.G.(.4X4Xi._.@X!.C.6.u.6.5.5.8.5.8.0.C.d.C.>.[.&X&XqXqXU.$XU.Y.0Xb.#.w.u g h 0 = % CXCXCXCXCX",
"CXCXCXCXCXCXCXo 2 8 S Q 1.%.v. XtXS.i.uX4XP.7X4X&X[.G.S.Q.V.9.s.H.H.8.H.9.Y.a.}.@XjXdXXX:Xt.W.K.XXcXfXe.D B S k h   CXCXCXCXCXCX",
"CXCXCXCXCXCX. X & a l ' D #.n.E.|.Y.g.I.dX:XzX0X!.`.#XC.s.C.u.>.a.q.y.y.<.s.I.!.7X6X).I.p.w.@.b.Y.1Xl.e.S 3 , 3 % CXCXCXCXCXCXCX",
"CXCXCXCXCXCX  a o h r S i k o.h.wX#.!.rXsX5XNX5XQ.).(.m.s.<.[.D.#X#XF.!.U.D.}.4XfX4X_.U.!.(.w.t.1XW.F *.B i * o ; CXCXCXCXCXCXCX",
"CXCXCXCXCXCXCX=   ! > h 5 k O.o.h.k.*XU.~.0X#XzXQ.lX!.E.oX1.9XlXs..X>X:X6XiX5XuXcXuX4X^.(.#Xt.e.%.e.F u e u + CXCXCXCXCXCXCXCXCX",
"CXCXCXCXCXCXCX- . - S r ~ D y ^ x. Xe.q.C.U.wXwX|.uXOXOX1XR.vXtXcXuXvXuXjXzXVXvXzX_.Z.i.2.OX3.c.B. .r./ ; 3 * CX% CXCXCXCXCXCXCX",
"CXCXCXCXCXCXCXCXCXCXg 0 ~ X.( s ^ k.b. X*XA.I.&XF.nX&XdXxXbXwXrXwXeXMXtXdXuXvXrX#X~.#X!.p.+.2.] k A s 5 , % @ CXCXCXCXCXCXCXCXCX",
"CXCXCXCXCXCXCXCXCX$ = 5 r { u ' O.:XB.qXA.p./.G.C.#X@XF.@XrXxXdXzXaX#X#X#XfX$X|.#X_.mX*XsXw.@.B r 5 r , > $ CXCXCXCXCXCXCXCXCXCX",
"CXCXCXCXCXCXCXCXCXCX= CXj 7 A l i ^ -X+.n.z.K.w.A.i.u.G.#X}.#X/.wX#XsX#XaX~.f.aXrX.XuXn.<.@.F s 8 1 A r 9 = CXCXCXCXCXCXCXCXCXCX",
"CXCXCXCXCXCXCXCXCXCX= CX% . - A 5 j v 3.&.K.Y.#Xz.L.@XOXdXU.b.K.wXZ.@X^.J.K.K.sX0XR.qXeX@.U k a Q 5 ' > = CXCXCXCXCXCXCXCXCXCXCX",
"CXCXCXCXCXCXCXCXCXCXCX+ CXl > < s A 1 Q ~ t.x.2.A.:X/.eXjX(.2.b.$X%X0Xp.b.2.v.z.1XB.c.h.( O.A S g < = =   CXCXCXCXCXCXCXCXCXCXCX",
"CXCXCXCXCXCXCXCXCXCXCXCXCX2 o y 8 8 ~ s 6 g 3.' n.j.E.<XW.$X5Xj.M.$Xp.w.4.cX$.m.2X%...-.X. .D 7 7 3 * O CXCXCXCXCXCXCXCXCXCXCXCX",
"CXCXCXCXCXCXCXCXCXCXCXCXCXCX% $ 4 ; ; t e 4 9 l $.b.K.iXpXpXt.&.c.-.-.:X#.( X.x.$.V u B S ' k > $ CX+ CXCXCXCXCXCXCXCXCXCXCXCXCX",
"CXCXCXCXCXCXCXCXCXCXCXCXCXCXCXCX% ; 8 3 : w a _ l O.D U ] 3.c.#.^ ) ,X3.U D F e U e B t $.9 @ $ CXCXCXCXCXCXCXCXCXCXCXCXCXCXCXCX",
"CXCXCXCXCXCXCXCXCXCXCXCXCXCXCX= CX% % k t e ( 0 ' a h v ^ O.] ( i f ] s / s ) t t t 8 > < @ O CXCXCXCXCXCXCXCXCXCXCXCXCXCXCXCXCX",
"CXCXCXCXCXCXCXCXCXCXCXCXCXCXCXCXCXCX4 7 2 % 1 1 l 0 ~ f d ` +.4.} 0 6 d d 2 q j n > > & X O CXCXCXCXCXCXCXCXCXCXCXCXCXCXCXCXCXCX",
"CXCXCXCXCXCXCXCXCXCXCXCXCXCXCXCXCXCXCXCXCX. X 1 # & f f v k a j f ! 6 1 6 1 > # > < X CXCXCXCXCXCXCXCXCXCXCXCXCXCXCXCXCXCXCXCXCX",
"CXCXCXCXCXCXCXCXCXCXCXCXCXCXCXCXCXCXCXCXCXCXCXo # . a < s h a 6 s 5 s 9 6 g h CXCXCXCXCXCXCXCXCXCXCXCXCXCXCXCXCXCXCXCXCXCXCXCXCX",
"CXCXCXCXCXCXCXCXCXCXCXCXCXCXCXCXCXCXCXCXCXCXCXCXCXCXCX7 - - @ . X . @ - CX- % @ CXCXCXCXCXCXCXCXCXCXCXCXCXCXCXCXCXCXCXCXCXCXCXCX",
"CXCXCXCXCXCXCXCXCXCXCXCXCXCXCXCXCXCXCXCXCXCXCXCXCXCXCX= $ % . O   o CXCXCXo CXCXCXCXCXCXCXCXCXCXCXCXCXCXCXCXCXCXCXCXCXCXCXCXCXCX",
"CXCXCXCXCXCXCXCXCXCXCXCXCXCXCXCXCXCXCXCXCXCXCXCXCXCXCXCXCXCXCXCXCXCXCXCXCXCXCXCXCXCXCXCXCXCXCXCXCXCXCXCXCXCXCXCXCXCXCXCXCXCXCXCX",
"CXCXCXCXCXCXCXCXCXCXCXCXCXCXCXCXCXCXCXCXCXCXCXCXCXCXCXCXCXCXCXCXCXCXCXCXCXCXCXCXCXCXCXCXCXCXCXCXCXCXCXCXCXCXCXCXCXCXCXCXCXCXCXCX",
"CXCXCXCXCXCXCXCXCXCXCXCXCXCXCXCXCXCXCXCXCXCXCXCXCXCXCXCXCXCXCXCXCXCXCXCXCXCXCXCXCXCXCXCXCXCXCXCXCXCXCXCXCXCXCXCXCXCXCXCXCXCXCXCX",
"CXCXCXCXCXCXCXCXCXCXCXCXCXCXCXCXCXCXCXCXCXCXCXCXCXCXCXCXCXCXCXCXCXCXCXCXCXCXCXCXCXCXCXCXCXCXCXCXCXCXCXCXCXCXCXCXCXCXCXCXCXCXCXCX"
};
