/* XPM */
static char *result[] = {
/* columns rows colors chars-per-pixel */
"64 64 225 2 ",
"   c #1C1D0D",
".  c #17170B",
"X  c #26260D",
"o  c #2D2C0E",
"O  c #27280E",
"+  c #33330F",
"@  c #2C2C12",
"#  c #262612",
"$  c #2F3211",
"%  c #333413",
"&  c #363914",
"*  c #3B3B14",
"=  c #343519",
"-  c #3C3D1C",
";  c #383712",
":  c #312F13",
">  c #413E17",
",  c #3E4016",
"<  c #3F411A",
"1  c #444415",
"2  c #4B4B16",
"3  c #43441C",
"4  c #45481C",
"5  c #4B4C1C",
"6  c #484617",
"7  c #504F1C",
"8  c #4E511D",
"9  c #53541D",
"0  c #58571C",
"q  c #5C5B1D",
"w  c #59581B",
"e  c #605D1C",
"r  c #64631E",
"t  c #69661C",
"y  c #6E6C1F",
"u  c #434422",
"i  c #464922",
"p  c #4B4D22",
"a  c #4E4D2D",
"s  c #4E5123",
"d  c #4D5029",
"f  c #535423",
"g  c #585622",
"h  c #565924",
"j  c #5B5C23",
"k  c #53552A",
"l  c #56592B",
"z  c #5B5D2A",
"x  c #58562A",
"c  c #5B5C36",
"v  c #504E21",
"b  c #605F29",
"n  c #5E6125",
"m  c #5E612B",
"M  c #5F6234",
"N  c #636424",
"B  c #696624",
"V  c #666926",
"C  c #6B6B25",
"Z  c #63642B",
"A  c #65692C",
"S  c #6B6C2B",
"D  c #716E25",
"F  c #706F2A",
"G  c #6E712C",
"H  c #6F7127",
"J  c #747225",
"K  c #7B7925",
"L  c #73742C",
"P  c #79762B",
"I  c #7C7B2C",
"U  c #797424",
"Y  c #636532",
"T  c #656931",
"R  c #6B6D33",
"E  c #6C6C3C",
"W  c #68673B",
"Q  c #6E7233",
"!  c #6D713A",
"~  c #737433",
"^  c #797632",
"/  c #767933",
"(  c #7B7C34",
")  c #73753A",
"_  c #767A3A",
"`  c #7A7B3B",
"'  c #706E35",
"]  c #6A6C43",
"[  c #727544",
"{  c #767A44",
"}  c #7A7B43",
"|  c #7B7D4C",
" . c #767648",
".. c #797A57",
"X. c #6F714F",
"o. c #7B7C60",
"O. c #837E24",
"+. c #827E2C",
"@. c #817E32",
"#. c #7E8134",
"$. c #7F813C",
"%. c #7D8043",
"&. c #7C804D",
"*. c #7E8450",
"=. c #85822D",
"-. c #89852C",
";. c #8C8A2C",
":. c #948E2F",
">. c #848333",
",. c #8D8B34",
"<. c #82833C",
"1. c #8C8B3B",
"2. c #888635",
"3. c #918E3C",
"4. c #959233",
"5. c #92913D",
"6. c #9A973B",
"7. c #92902A",
"8. c #848444",
"9. c #858945",
"0. c #8B8B43",
"q. c #82844B",
"w. c #868A4B",
"e. c #8B8C4B",
"r. c #8B8740",
"t. c #918E45",
"y. c #918E4E",
"u. c #8F9049",
"i. c #939244",
"p. c #9C9942",
"a. c #93934B",
"s. c #9C9B4B",
"d. c #979845",
"f. c #838554",
"g. c #8B8D53",
"h. c #8B8B5A",
"j. c #85885B",
"k. c #8E925C",
"l. c #8F9050",
"z. c #929356",
"x. c #989550",
"c. c #9B9B54",
"v. c #94945B",
"b. c #9A9A5B",
"n. c #98985B",
"m. c #A19B4B",
"M. c #A19E52",
"N. c #A09E5C",
"B. c #9FA05D",
"V. c #A8A44B",
"C. c #A3A153",
"Z. c #A3A35C",
"A. c #AEAA5C",
"S. c #ABA958",
"D. c #B3AF5B",
"F. c #8B8C64",
"G. c #868866",
"H. c #929364",
"J. c #9B9C63",
"K. c #93956C",
"L. c #96996C",
"P. c #9D9E6A",
"I. c #969963",
"U. c #8A8D73",
"Y. c #8F9172",
"T. c #9B9D7D",
"R. c #969775",
"E. c #8E9168",
"W. c #A19F6A",
"Q. c #A19F65",
"!. c #9DA175",
"~. c #A4A465",
"^. c #A9AA64",
"/. c #A4A56C",
"(. c #ABAB6C",
"). c #A8A869",
"_. c #AFB16B",
"`. c #B5B268",
"'. c #A4A473",
"]. c #ABAB74",
"[. c #A5A67A",
"{. c #ABAB7B",
"}. c #A7A774",
"|. c #B1AE77",
" X c #AFB279",
".X c #AEB073",
"XX c #B3B374",
"oX c #B4B47D",
"OX c #B9B87A",
"+X c #B3AF61",
"@X c #C0BC70",
"#X c #C6C37A",
"$X c #9D9E80",
"%X c #A09E80",
"&X c #A4A582",
"*X c #ABAC84",
"=X c #AAAC8A",
"-X c #A6A786",
";X c #AEB184",
":X c #B2B383",
">X c #BBBB83",
",X c #B2B48A",
"<X c #BBBC8C",
"1X c #B6BA87",
"2X c #BDBE93",
"3X c #B6B796",
"4X c #AEB290",
"5X c #C1BE83",
"6X c #C1BF8A",
"7X c #C0BF96",
"8X c #BDC186",
"9X c #BEC198",
"0X c #C3C285",
"qX c #C2C28B",
"wX c #CAC98D",
"eX c #C4C593",
"rX c #CECD95",
"tX c #C4C59C",
"yX c #CBCB9B",
"uX c #D7D79A",
"iX c #CFCF95",
"pX c #CCCCA6",
"aX c #D8D7A6",
"sX c #E1DFA4",
"dX c #3F824F",
/* pixels */
"dXdXdXdXdXdXdXdXdXdXdXdXdXdXdXdXdXdXdXdXdXdXdXdXdXdXdXdXdXdXdXdXdXdXdXdXdXdXdXdXdXdXdXdXdXdXdXdXdXdXdXdXdXdXdXdXdXdXdXdXdXdXdXdX",
"dXdXdXdXdXdXdXdXdXdXdXdXdXdXdXdXdXdXdXdXdXdXdXdXdXdXdXdXdXdXdXdXdXdXdXdXdXdXdXdXdXdXdXdXdXdXdXdXdXdXdXdXdXdXdXdXdXdXdXdXdXdXdXdX",
"dXdXdXdXdXdXdXdXdXdXdXdXdXdXdXdXdXdXdXdXdXdXdXdXdXdXdXdXdXdXdXdXdXdXdXdXdXdXdXdXdXdXdXdXdXdXdXdXdXdXdXdXdXdXdXdXdXdXdXdXdXdXdXdX",
"dXdXdXdXdXdXdXdXdXdXdXdXdXdXdXdXdXdXdXdXdXdXdXdXdXdXdXdXdXdXdXdXdXdXdXdXdXdXdXdXdXdXdXdXdXdXdXdXdXdXdXdXdXdXdXdXdXdXdXdXdXdXdXdX",
"dXdXdXdXdXdXdXdXdXdXdXdXdXdXdXdXdXdXdXdXdXdXdXdXdXdXdXdXdXdXdXdXdXdXdX5XdXdXdXdXdXdXdXdXdXdXdXdXdXdXdXdXdXdXdXdXdXdXdXdXdXdXdXdX",
"dXdXdXdXdXdXdXdXdXdXdXdXdXdXdXdXdXdXdXdXdXdXdXdXdXdXdXdXdXdXdXdXdX_.wX<XrX.XdX,X9XdXdXdXdXdXdXdXdXdXdXdXdXdXdXdXdXdXdXdXdXdXdXdX",
"dXdXdXdXdXdXdXdXdXdXdXdXdXdXdXdXdXdXdXdXdXdXdXyXdXdXdX8XeXdXdXI.7X+XdXc.dXdXwXeXrXdXdXdXdXdXdXdXdXdXdXdXdXdXdXdXdXdXdXdXdXdXdXdX",
"dXdXdXdXdXdXdXdXdXdXdXdXdXdXdXdXdXdXdXdX2XdXdXoXdX:X,Xe.oXD.dX{.F.c.dXW.4XOXdX]..XdXdXdXdXdXdX&XaXdXdXdXdXdXdXdXdXdXdXdXdXdXdXdX",
"dXdXdXdXdXdXdXdXdXdXdXdXdXdXdXdXdXdXdXpXdX^.dX,X:Xw.C.}.L.$./.A.[.g.0.b.v.e.J.S.:XdXqXdXdXdXdXpXXXdXdXdXdXdXdXdXdXdXdXdXdXdXdXdX",
"dXdXdXdXdXdXdXdXdXdXdXdXdXdXdXdXdXdXdX]..X~.*Xc.&Xg. .J.p.c.#.c.n.i.q.g.L t.1.%.dX.XM.dXdXdX!.z.>XdXdXdXdXdXdXdXdXdXdXdXdXdXdXdX",
"dXdXdXdXdXdXdXdXdXdXdXdXdXdXdXdXdXdX8X~.s. .l.I.^.5.s.<.<.2.Q $.S.0.z.e.S 1.I z.1Xp.g.s.dXdXk.L.b.dXdXdXdXdXdXdXdXdXdXdXdXdXdXdX",
"dXdXdXdXdXdXdXdXdXdXdXqXdXdXdXdXdXdXdXdX| ` %.<.0.i.,.p./ / [ Q 2.<.( ^ ` } 9.i.H <.) C.{.b.{ %.,XaXdXdXdXdXdXdXdXdXdXdXdXdXdXdX",
"dXdXdXdXdXdXdXdXdXdXdXdXdX2XdXdXdXOX>Xn.<X<.p.e.~ >.` <.#.1.Z m I Q ( G 0.,.1.&.l.m 0.v.e.+.&.m.'.,XdXdXdXdXdXdXdXdXdXdXdXdXdXdX",
"dXdXdXdXdXdXdXdXdXdX0XdX<XOX=X>X).<X{ P.&.E ~ @./ m A n R =.G R S P G ,.( J ^ / V %.>.,.^ { s.a.^.dXdXdXdXdXdXdXdXdXdXdXdXdXdXdX",
"dXdXdXdXdXdXdXdXdXdXdXqX,XXXn.&.j.b.z.W b +.F Q S S p N b Q S T j k =.R V e W >.#.A P ,.>.#.) _ a.<XOXdXdXdXdXdXdXdXdXdXdXdXdXdX",
"dXdXdXdXdXdXdXdXdXdXdXdX*Xz.0.g.w.Q 0.K.R C J +.' z a f 2 f b b j S C V m S V Z L j A ` G  .S ) X.H.'.dXdXdX#XdXdXdXdXdXdXdXdXdX",
"dXdXdXdXdXdXdXdXdXdXdXdXdX/.P.>.n.z ..8.@.=.B S 2 z q 9 9 z 5 5 0 m j 9 k q h L H Z Z -.) T T / x.Q Z.}.;X7XdXdXdXdXdXdXdXdXdXdX",
"dXdXdXdXdXdXdXdXdXdXdXdX`.XXw.P R ` &.<.g ( ( @.Q h V A S H N v j 9 n p V f f N y m q n A +.S } A r.6.g.(./.c.2XdXdXdXdXdXdXdXdX",
"dXdXdXdXdXdXdXdXdXdXdXdXOXi.<.E / } ` R >.Q j ~ ~ / m S f A Z L L J >.L S 5 C N p Z Z p 7 ^ L A A ;.1.` s.(.3XF.#XdXdXdXdXdXdXdX",
"dXdXdXdXdXdXdXdXdXdXdX<XXXF.8.( ,.A S -.8 A R J m h f 5 1 j j V A V 2.f S V -.f s j q 5 z @.Q / V x.} f.~.G.>XdXdXdXdXdXdXdXdXdX",
"dXdXdXdXdXdXdXdXdXdXdXdXS @.F.S h I n S Y T Z #.Z l z 2 h j L L s n V R m ^ j +.h ~ 9 n N 5.P >.P ` e./ H.}.).rXdXdXdXdXdXdXdXdX",
"dXdXdXdXdXdXdXdX:XL.{.g.@.T.&.P G D L C P / z h A 5 9 * 0 n s q f 8 S z 5 ) h i K >.j S ~ C L _ Z { ] | h.Z.dX~.dXdXdXdXdXdXdXdX",
"dXdXdXdXdX^.>XOX`.j.v.0.` 3.k 0.>.>.C L H j S k w , 2 9 1 V f r e i A z D N k 5 ~ A h +.V z T 5.<.) V.e.C.m.K.dXdXdXdXdXdXdXdXdX",
"dXdXdXdXdXeX_.tX9XL.W.n.3.) 9 I / S J =./ S ( k f % % X X % G h 2 - p i z V f F i j ~ V h ^ -.I ) 9 V 9.) i.W.rXdXdXdXdXdXdXdXdX",
"dXdXdXdXdXdX#X0X:Xv.| &Xa.( Q 3 j 9 8 e 9 L z h j 7 6 % ; O h 0 > 9 J I t L J 4.R f j I n m q I Q N j 8.>.oX/.v.Z.dX#XdXdXdXdXdX",
"dXdXdXdXdXdXdXeXb.a.;X2.U 9 R 9 Z n 4 < - n h j q f = O ; r q p 9 P K L j 9 V :.Y e * Z f L j S V h k Z G q._ Y ~.2XdXdXdXdXdXdX",
"dXdXdXdXdXdXdXdXL.*XZ.#. .j x g Q j 5 < Z m ~ I J * 3 9 - % f # j Y m J r 9 f z z L v r 5 0 h s 1.j z N ) / Y.e.e.~.C.0XdXdXdXdX",
"dXdXdXdXdXdX0X=X#XW.b.e.L e 9 L m 8 p 5 N #.I T M 9 $ % * ; o # Y W G n 7 q h G S ~ z N q L h q N h h n $.` P ^ 0.J.OX>XiXdXdXdX",
"dXdXdXdXuXdXOX*X&Xk.t.) ^ t./ ^ V f l 8 9 J i e N 4 3 @ X # o : & n C ( ; o 8 N 7 z 5 9 1 1 7 - 4 3 f j 0.T L i.=XR.3XdXdXdXdXdX",
"dXdXdXdX2X$X-XU.dXh.E.&.@.b 1.I V L A K N A ~ 5 q 1 & @ ;   = @ w * ^ 4 t % * 5 r V f 9 j N 1 z 5 ^ E ' } L 8.(.~.dXeXdXdXdXdXdX",
"dXdXdX9XtX4XdXk.dXu.v.S ) ) >.) m Y m S Z m ~ 9 2 @ * $ . ; %   $ z A = u < $ 6 6 9 q P D K 2 t N / I / ( / L.b.H.>XdXdXdXdXdXdX",
"dXdXdXdXdXdXdX*XF.Y.o.] v ^ b S P V V j 3 P h G m Z i -   O 6 & o 9 h k @ ,.2 , 3 v m 2 S j b >.^ I B Z j ` F.~.OXdXdXdXdXdXdXdX",
"dXdXdXdXdXsX/.[.K.G.] Q =.S V #.L 0 l 4 & t #.V ' A = 5 = . 9 $ 2 f j J = o % 4 4 m G J n l l P 2 #.#.P G ,.` s.}.dXdXdXdXdXdXdX",
"dXdXdXdXdXdX^.P.y.f.Y &.S >.:.I S Z S 9 9 J =.C t Z 2 & f & 2 f k @ o 1 . X * 1 d A #.N J j j P m q >.n 2.) I ~.E.[.<XdXdXdXdXdX",
"dXdXdXdXdXdXdXdX5XA.<.>.R ] #.Q C >.j < -.y C N j 1 8 @ 9 * - T n * + 4 % * j * u 8 8 S Y k s m Q m <.P #.S P J.n.P.:XrXdXdXdXdX",
"dXdXdXdXdXdXdX;XH.5.#.8._ ( n A f e 8 9 6 N I R j l i 2 & 9 5 9 * y f 3 1 , 1 1 < P m I N R j l S C V ` A ^ } / x.a.OXdXdXdXdXdX",
"dXdXdXdXdXdXdX=Xz.j.6.F ,.Q h k p j 3 u ; s Z I J h 8 @ > 6 9   z V  .N V 1 q 9 2 n N e j h S P h V b E S E ~ L -X$X9XdXqXdXdXdX",
"dXdXdXdXdXdXdX6X X/ x.l ~ $.Q V Z S z f * p V q R 0 8 8 & 7 ; : + h S ` * l q N h S 5 m f f G ~ L V Z I P w.5.n.L.H.pXdXdXdXdXdX",
"dXdXdXdXdXdXdXdXeXJ.j.4.#.;.P V s M z 0 # F s V 0 4 9 < g q r * 5 I U S 1 5 2 q # = k h z 9 V <.z 9 A V T @.n.}.dXdXdXdXdXdXdXdX",
"dXdXdXdXdXdXdXdX].~.z.s.g.2.Y k ^ D 5 - 9 9 ~ S s h 4 h 3 ; : q 4 N D * i j j f 6 k R J j N 3 s P B h L ! 1.XXtX:XdXdXdXdXdXdXdX",
"dXdXdXdXdXdXdXdX[.0.*X:Xn.<.=.>.V L p w 5 1 S Q F S V K f < = e 9 y - 1 k f m S C Z t N l C N f ) z V ( Y P.oXdXdXdXdXdXdXdXdXdX",
"dXdXdXdXdXdXdX:X,X1XeXdXZ.0.z.~ f z N f - - f Z V G ~ 0 g f ; 1 B N g m S z A I J >.9 S S V p I ~ p Z t.<.0.B.OXdXdXdXdXdXdXdXdX",
"dXdXdXdXdXdXdXdXdXdXdX7X/.~.u.d.S J j s j p l p z R I 1.Z I 6 - q 9 5 h Z C j t 3 z 5 3 S P Z i m ` { ~ a.g.(.(.eXdXdXdXdXdXdXdX",
"dXdXdXdXdXdXdXdXoXdXdXdX#X{.b.i.e.$.f n Z Z h p z S O.9 V 4 9 4 p j n h n / C 0 f 8 h N j Y >.P ) Z <.( >.0.J.dXdXdXdXdXdXdXdXdX",
"dXdXdXdXdXdXdXdXdXdXdXdXdXQ.s.I.H.P D n j z F 7 V j S q j - 8 5 9 P B O.7.N +.j 6 9 7 ' N J R ` >.x.y.`.=X=X&X[.dXdXdXdXdXdXdXdX",
"dXdXdXdXdXdXdXdXdXdXdXdXdX].Z.k. .| R x p 9 J p Z h f ~ h m t N n #.D B q C z n S G V f Z / J A 3.d. .G.[.!.U.}.;XdXdXdXdXdXdXdX",
"dXdXdXdXdXdXdXdXdXdXdXdXdXdX1._ q.W Z p x i 5 P A K s 9 ^ V L I N y w j N G m z t b R L z T } ` h.T h.` ~.dX2X=XdX0X@XdXdXdXdXdX",
"dXdXdXdXdXdXdXdXdXdXdXdXdX_.^.J.) f c j u Z B x I I h l V L P f h N N V j Q B A J V R P b R &.,.5.}.g.,X~.>X:XrXdXdXdXdXdXdXdXdX",
"dXdXdXdXdXdXdXdXdXdXdXdXdX9X}.c.h.W  .f.R T E j 9 ` V P >.Z G j 7 j z N L J j A L S A ( #.>.~ q.z.oXw.dXiXdXdXdXdXdXdXdXdXdXdXdX",
"dXdXdXdXdXdXdXdXdXdXdXdXuXdXb.g.} | _ ( 2.' [ >.0 L L ` S J -.N T A q k G N / I >.+.P t.C./.V.!.V.+X<XdXdXdXdXdXdXdXdXdXdXdXdXdX",
"dXdXdXdXdXdXdXdXdXdXdXdXdX3XXX}.v.N g.l.,.H.0.8.! ) V Q I I f ^ P k A z j <.( >.#.#.T y.Z.R.E.yXdXdXdXdXdXdXdXdXdXdXdXdXdXdXdXdX",
"dXdXdXdXdXdXdXdXdXdXdXdXdX XOXXXJ.8.&X,X/.3.| ) h.<.<.m ` ~ Q ` J C Z L n 1.f.} >.P P f.~.Z...L.dXdXdXdXdXdXdXdXdXdXdXdXdXdXdXdX",
"dXdXdXdXdXdXdXdXdXdXdXdXdXdXdX/.c.F.[.(.dX3XOXP.&.( ;.G ( ,.~ Y w.e.$.N z ^ 0.} P e.<./.~.OXdXK.).dXdXdXdXdXdXdXdXdXdXdXdXdXdXdX",
"dXdXdXdXdXdXdXdXdXdXdXdXdXdXdX:XeX:X=XdX1Xz.>X{.i.1.,.=.( I ~ ` ( ' Y.4.z.1.Z.x.g.` { T.-XdXdXpXdXdXdXdXdXdXdXdXdXdXdXdXdXdXdXdX",
"dXdXdXdXdXdXdXdXdXdXdXdXdXdXdXdXdXdXdXdXdXdX`.{.S.v.v.1.( g.z.q.<.u.J.c.2.a.Z...}.OXoX:X/./.dXdXM.dXdXdXdXdXdXdXdXdXdXdXdXdXdXdX",
"dXdXdXdXdXdXdXdXdXdXdXdXdXdXdXdXdXdXdXdXdXdXdXoXP.dX'.'.` P.P.'.0.z.Q.'.<.M.(.dX].dX<X(.dX0XdXdXdXdXdXdXdXdXdXdXdXdXdXdXdXdXdXdX",
"dXdXdXdXdXdXdXdXdXdXdXdXdXdXdXdXdXdXdXdXdXdXdXtXdXdXdXdX].| *X*X1.T.dXdXdXdXdXdXdXdXdXdXdXdXdXdXdXdXdXdXdXdXdXdXdXdXdXdXdXdXdXdX",
"dXdXdXdXdXdXdXdXdXdXdXdXdXdXdXdXdXdXdXdXdXdXdXdXdXdXdXoXH.^.oX-XT.[ {.dXdXdXdXdXdXdXdXdXdXdXdXdXdXdXdXdXdXdXdXdXdXdXdXdXdXdXdXdX",
"dXdXdXdXdXdXdXdXdXdXdXdXdXdXdXdXdXdXdXdXdXdXdXdXdXdXdX#XdXOX[.dXW.~.oXdXdXdXdXdXdXdXdXdXdXdXdXdXdXdXdXdXdXdXdXdXdXdXdXdXdXdXdXdX",
"dXdXdXdXdXdXdXdXdXdXdXdXdXdXdXdXdXdXdXdXdXdXdXdXdXdXdXdXdXdXdXdXdX(.:XdXdXdXdXdXdXdXdXdXdXdXdXdXdXdXdXdXdXdXdXdXdXdXdXdXdXdXdXdX",
"dXdXdXdXdXdXdXdXdXdXdXdXdXdXdXdXdXdXdXdXdXdXdXdXdXdXdXdXdXdXdXdXdXdXdXdXdXdXdXdXdXdXdXdXdXdXdXdXdXdXdXdXdXdXdXdXdXdXdXdXdXdXdXdX",
"dXdXdXdXdXdXdXdXdXdXdXdXdXdXdXdXdXdXdXdXdXdXdXdXdXdXdXdXdXdXdXdXdXdXdXdXdXdXdXdXdXdXdXdXdXdXdXdXdXdXdXdXdXdXdXdXdXdXdXdXdXdXdXdX",
"dXdXdXdXdXdXdXdXdXdXdXdXdXdXdXdXdXdXdXdXdXdXdXdXdXdXdXdXdXdXdXdXdXdXdXdXdXdXdXdXdXdXdXdXdXdXdXdXdXdXdXdXdXdXdXdXdXdXdXdXdXdXdXdX",
"dXdXdXdXdXdXdXdXdXdXdXdXdXdXdXdXdXdXdXdXdXdXdXdXdXdXdXdXdXdXdXdXdXdXdXdXdXdXdXdXdXdXdXdXdXdXdXdXdXdXdXdXdXdXdXdXdXdXdXdXdXdXdXdX"
};
