/* XPM */
static char *result[] = {
/* columns rows colors chars-per-pixel */
"64 64 236 2 ",
"   c #010202",
".  c #0A070A",
"X  c #0D161B",
"o  c #0D191D",
"O  c #0D1416",
"+  c #11161A",
"@  c #131A1D",
"#  c #191718",
"$  c #0D100F",
"%  c #270A0D",
"&  c #251A1C",
"*  c #361919",
"=  c #1D211E",
"-  c #35231F",
";  c #131D23",
":  c #1A1D24",
">  c #0D1C22",
",  c #221B22",
"<  c #152124",
"1  c #1A2325",
"2  c #1C242A",
"3  c #1D292C",
"4  c #152429",
"5  c #1E2B31",
"6  c #172829",
"7  c #22252C",
"8  c #222B2D",
"9  c #262326",
"0  c #372527",
"q  c #232C32",
"w  c #2A2E34",
"e  c #262A36",
"r  c #253133",
"t  c #2A3235",
"y  c #253239",
"u  c #2C353B",
"i  c #2C393B",
"p  c #33353C",
"a  c #333B3D",
"s  c #3B3A3E",
"d  c #38353A",
"f  c #30312E",
"g  c #521B1E",
"h  c #4B1C22",
"j  c #43292A",
"k  c #56272A",
"l  c #473A3C",
"z  c #53322F",
"x  c #66282B",
"c  c #74252A",
"v  c #743434",
"b  c #6A3236",
"n  c #6D1D24",
"m  c #38423C",
"M  c #47453E",
"N  c #2E3A41",
"B  c #343C41",
"V  c #3B3D42",
"C  c #463D42",
"Z  c #6F3642",
"A  c #374144",
"S  c #3C4344",
"D  c #3C4549",
"F  c #3E4849",
"G  c #3D4C51",
"H  c #42454A",
"J  c #444B4C",
"K  c #4B4D4C",
"L  c #464445",
"P  c #564646",
"I  c #474C53",
"U  c #4B5354",
"Y  c #4B5557",
"T  c #545B5C",
"R  c #595A5B",
"E  c #565657",
"W  c #4B5547",
"Q  c #695759",
"!  c #724D4F",
"~  c #6E7559",
"^  c #5A5D62",
"/  c #695E62",
"(  c #5C6464",
")  c #586766",
"_  c #636464",
"`  c #636A6B",
"'  c #646867",
"]  c #776869",
"[  c #64706C",
"{  c #6A6D71",
"}  c #6C7473",
"|  c #757A78",
" . c #717369",
".. c #5D6057",
"X. c #92141C",
"o. c #871C26",
"O. c #9A1B23",
"+. c #A91A26",
"@. c #B91C28",
"#. c #9B212E",
"$. c #86373A",
"%. c #9A373A",
"&. c #8A2A2F",
"*. c #A82229",
"=. c #B8242D",
"-. c #A72A36",
";. c #B82734",
":. c #B83637",
">. c #AC3D3E",
",. c #C81A2C",
"<. c #D81729",
"1. c #CD1E31",
"2. c #EC0E26",
"3. c #E80E28",
"4. c #F30B2A",
"5. c #E21125",
"6. c #EB1326",
"7. c #ED142A",
"8. c #E31A2A",
"9. c #EC1B2B",
"0. c #E51728",
"q. c #F31A2E",
"w. c #F2142C",
"e. c #EC1A32",
"r. c #DB232D",
"t. c #D5252D",
"y. c #C72934",
"u. c #D72936",
"i. c #C8383C",
"p. c #D63336",
"a. c #C62028",
"s. c #E7242C",
"d. c #E62734",
"f. c #F52935",
"g. c #E73339",
"h. c #F4333B",
"j. c #AE4036",
"k. c #CD493F",
"l. c #823D43",
"z. c #933A40",
"x. c #BC3845",
"c. c #AE3742",
"v. c #C63644",
"b. c #D83845",
"n. c #E63845",
"m. c #F53944",
"M. c #E52F40",
"N. c #8F4B4B",
"B. c #AA4549",
"V. c #B64E4C",
"C. c #8F6B69",
"Z. c #A8676A",
"A. c #B2756E",
"S. c #B56064",
"D. c #C84546",
"F. c #D74B49",
"G. c #D65254",
"H. c #CE5352",
"J. c #E84649",
"K. c #F5454A",
"L. c #E84B56",
"P. c #EA5858",
"I. c #F64E53",
"U. c #F0645A",
"Y. c #CC5C62",
"T. c #EA5966",
"R. c #F15262",
"E. c #C56667",
"W. c #D36B6B",
"Q. c #F67976",
"!. c #ED6D6E",
"~. c #DE6157",
"^. c #7C827D",
"/. c #7A877D",
"(. c #8D8F63",
"). c #FB847A",
"_. c #E98779",
"`. c #CB845C",
"'. c #797E81",
"]. c #DF7E85",
"[. c #7C8283",
"{. c #828584",
"}. c #8B8D8B",
"|. c #858988",
" X c #8B958A",
".X c #93948F",
"XX c #979998",
"oX c #8C9194",
"OX c #AE8E8B",
"+X c #9AA598",
"@X c #8DA191",
"#X c #AEA798",
"$X c #9D9CAB",
"%X c #9DA3A4",
"&X c #A7A9A9",
"*X c #ABB5A7",
"=X c #B6B8AD",
"-X c #B9B9B7",
";X c #B1ABB0",
":X c #D28D91",
">X c #E68D84",
",X c #F68A86",
"<X c #F99589",
"1X c #EA9794",
"2X c #F99B93",
"3X c #E09B8B",
"4X c #CDA897",
"5X c #FAA69C",
"6X c #EBA197",
"7X c #D89CA3",
"8X c #CFB2AC",
"9X c #FBB3A9",
"0X c #FAB9B4",
"qX c #E9ABAA",
"wX c #E795A4",
"eX c #BAC2B7",
"rX c #C6C7B8",
"tX c #D8CEBE",
"yX c #ECD2B3",
"uX c #CBCCCB",
"iX c #C8CBC6",
"pX c #CBD5CA",
"aX c #D5D5D4",
"sX c #DBDBDB",
"dX c #D8DAD7",
"fX c #D3D1CC",
"gX c #EAD7D8",
"hX c #F2DAD3",
"jX c #DDE3D3",
"kX c #E5E8D8",
"lX c #F6F0D6",
"zX c #E6E5E6",
"xX c #FAFBE9",
"cX c #F3F4EF",
"vX c #DFDFE2",
"bX c #3F824F",
/* pixels */
"bXbXbXbXbXbXbXbXbXbXbXbXbXbXbXbXbXbXbXbXbXbXbXbXbXbXbXbXbXbXbXbXbXbXbXbXbXbXbXbXbXbXbXbXbXbXbXbXbXbXbXbXbXbXbXbXbXbXbXbXbXbXbXbX",
"bXbXbXbXbXbXbXbXbXbXbXbXbXbXbXbXbXbXbXbXbXbXbXbXbXbXbXbXbXbXbXbXbXbXbXbXbXbXbXbXbXbXbXbXbXbXbXbXbXbXbXbXbXbXbXbXbXbXbXbXbXbXbXbX",
"bXbXbXbXbXbXbXbXbXbXbXbXbXbXbXbXbXbXbXbXbXbXbXbXbXbXbXbXbXbXbXbXbXbXbXbXbXbXbXbXbXbXbXbXbXbXbXbXbXbXbXbXbXbXbXbXbXbXbXbXbXbXbXbX",
"bXbXbXbXbXbXbXbXbXbXbXbXbXbXbXbXbXbXbXbXbXbXbXbXbXbXbXbXbXbXbXbXbXbXbXbXbXbXbXbXbXbXbXbXbXbXbXbXbXbXbXbXbXbXbXbXbXbXbXbXbXbXbXbX",
"bXbXbXbXbXbXbXbXbXbXbXbXbXbXbXbXbXbXbXbXbXbXbXbXbXbXbXbXbXbXbXbXbXbXbXbXbXbXbXbXbXbXbXbXbXbXbXbXbXbXbXbXbXbXbXbXbXbXbXbXbXbXbXbX",
"bXbXbXbXbXbXbXbXbXbXbXbXbXbXbXbXbXbXbXbXbXbXbXbXbXbXbXbXbXbXbXbXbXbXbXbXbXbXbXbXbXbXbXbXbXbXbXbXbXbXbXbXbXbXbXbXbXbXbXbXbXbXbXbX",
"bXbXbXbXbXbXbXbXbXbXbXbXbXbXbXbXbXbXbXbXbXbXbXbXbXbXbXbXbXbXbXbXbXbXbXbXbXbXbXbXbXbXbXbXbXbXbXbXbXbXbXbXbXbXbXbXbXbXbXbXbXbXbXbX",
"bXbXbXbXbXbXbXbXbXbXbXbXbXbXbXbXbXbXbXbXbXbXbXbXbXbXbXbXbXbXbXbXbXbXbXbXbXbXbXbXbXbXbXbXbXbXbXbXbXbXbXbXbXbXbXbXbXbXbXbXbXbXbXbX",
"bXbXbXbXbXbXbXbXbXbXbXbXbXbXbXbXbXbXbXbXbXbXbXbXbXbXbXbXbXbXbXbXbXbXbXbXbXbXbXbXbXbXbXbXbXbXbXbXbXbXbXbXbXbXbXbXbXbXbXbXbXbXbXbX",
"bXbXbXbXbXbXbXbXbXbXbXbXbXbXbXbXbXbXbXbXbXbXbXbXbXbXbXbXbXbXbXbXbXbXbXbXbXbXbXbXbXbXbXbXbXbXbXbXbXbXbXbXbXbXbXbXbXbXbXbXbXbXbXbX",
"bXbXbXbXbXbXbXbXbXbXbXbXbXbXbXbXbXbXbXbXbXbXbXbXbXbXbXbXbXbXbXbXbXbX&XXX'.} ) ` Y |.uXbXbXbXbXbXbXbXbXbXbXbXbXbXbXbXbXbXbXbXbXbX",
"bXbXbXbXbXbXbXbXbXbXbXbXbXbXbXbXbXbXbXbXbXbX&X|.[.{ ^ U H D D B u e e 5 7 7 e D |.[.H u ` ;XbXaXfXbXbXbXbXbXbXbXbXbXbXbXbXbXbXbX",
"bXbXbXbXbXbXbX-X-X-X%XoX| _ T H V B V N u e e h 0 k x v &.-.c.x.x.b.d.g.M.n.n.D.:XbXbXcXbX{ B I oXuXbXuXbXbXbXbXbXbXbXbXbXbXbXbX",
"bXbXbXbXbX|.D D [.uX|.e 5 : 9 0 k $.c.v.b.L.T.].2X9X0X0XgXzXcXbXsX8XtX9XlXzXpXdX}.}.OXE.7XbXbXbX'.D N ( &XbXsXbXbXbXbXbXbXbXbXbX",
"bXbXbXbXbXN y ^ I B { -X8XY.m.I.m.m.m.,X5X5X,X!.R.R.R.!.1XgXqXbXzXgXbX:X1X9X1XB.:.x.v.R.Q.0XT.].bXbXbXbX^ e I {.| bXbXbXbXbXbXbX",
"bXbXbXbXbXy q bXbXbXE y ^ $XuX:XL.I.R.T.Q.,X,X,X2X5X5X5XL.v.b.G.J.H.v.b.,X0X0X0X0X9X9Xm.d.m.L.wX1XG.7XXXXX'.( T T T bXbXbXbXbXbX",
"bXbXbXbXbXy y bXbXbXE.y.$.a J XXaX7XR.U.<X2XQ.<X<X2X2X5X9X9X<X2X].T.K.!.5X9X9X5X1X>XW.S.Z./ E H V B N y w e e q q F |.bXbXbXbXbX",
"bXbXbXbXbXy e bXOXH.s.s.s.r.j.l d XXbX8X<X].Q.).).).)._.>X<X5X1XT.E.Z.C...J A p y y y 2 ; : 1 1 7 9 j k ! }.bXbXbXD U bXbXbXbXbX",
"bXbXbXbXbXN q B u , ;.f.s.f.9.s.:.M | XX| !.,X1X:XOXC./ U F a i u t 8 1 = @ @ : # & h g o.@.1.<.<.0.8.8.r.lXbXbXbXu F bXbXbXbXbX",
"bXbXbXbXbXN y D y ; x *.t.h.9.s.7.8.y.'.H a p w r r 3 ; = > @ # # * g n #.@.,.<.3.<.3.5.3.2.6.6.w.9.q.q.9.P.6XbXbXt B bXbXbXbXbX",
"bXbXbXbXbXN u 5 5 G 6 v =.a.p.h.q.q.9.k V e : # & * g o.*.,.<.<.<.5.5.3.2.2.6.6.7.9.q.f.6.6.9.0.e.8.1.;.%.c c Z.8Xw D bXbXbXbXbX",
"bXbXbXbXbXe i 5 5 3 r U 0 B.a.,.g.P.d.y.H w ;.<.<.6.4.4.3.2.2.2.2.2.w.q.q.0.6.7.7.8.<.<.@.*.*.*.,.1.8.8.7.m.Q.!.n.Z B bXbXbXbXbX",
"bXbXbXbXbX5 r bXr 3 3 r E J j =.@.,.~.>X3 B c 4.2.6.7.7.7.7.6.6.7.0.9.8.<.@.@.+.@.@.<.5.5.g.P.U.U.J.d.g.n.L.L.n.~.C Y bXbXbXbXbX",
"bXbXbXbXbXe u bXbXY r r bXA Y f k =.,.=.9 t 0 0.0.9.w.7.0.1.*.O.O.+.,.<.6.6.q.f.q.f.h.d.d.+.o.$.* c d.q.q.q.w.q.s.d ` bXbXbXbXbX",
"bXbXbXbXbXq q bXbXbXbXt aXa 2 < _ w c =.= + # o.X.X.+.@.<.r.g.K.m.f.f.f.f.9.r.D.S.Z.P 9 .         . b.4.4.4.7.q.f.0 | bXbXbXbXbX",
"bXbXbXbXbXq 5 bXbXK {.bX) r 6 < 1 1  .8 = = - h.K.K.I.K.K.g.s.r.b.G.A.! C , + X + .               . 3.4.e.b.T.T.v.q bXbXbXbXbXbX",
"bXbXbXbXbXq 3 } XX[ | 4 > r 3 = > = + 7 = O # s.6.:.% % % % # $ + O     .       .         . . = j l.E.V.l.k 0 <.^ 5 bXbXbXbXbXbX",
"bXbXbXbXbXq 2 a Y Y F > > m r [ 6 < @ O = + $ V.p.&   .                     .     # l C.S.V.$.b ! {.-XbXbX5 j r.p e bXbXbXbXbXbX",
"bXbXbXbXbXq 1 2 6 ^.5 o o > o 3 (.V # O < + # <.5.#                   . s ] OXZ.v g , C &XeXdXbXbXbXbXbXbX3 x u.e u bXbXbXbXbXbX",
"bXbXbXbXbXq 6 r 4 > o o o 6 O k =.N.d = @ O # 5.5.& ; . # f l Q Z.Z.N.k l _ $Xj ( ( t ^ q e { bXbX` oXbX&Xq v v.2 u bXbXbXbXbXbX",
"bXbXbXbXbXw 3 M 4 = o o o 6 o #.3.8.i.k # + # 5.0.Z N.S.z.x j P .X%X%XbX;XI R h A ^ &X( q u '.bX|.y B bX^.;Xc.Y.e H bXbXbXbXbXbX",
"bXbXbXbXbXu q R (.6 o > O = o *.4.9.7.r.9 @ - ,.k M .XbX&XbXbX{ a i e i u V E 0 bXbXbXU 2 Y oXbX'.B ` bX` L x.z.y ( bXbXbXbXbXbX",
"bXbXbXbXbXB e E @X~ > ; o r 1 t.7.@.*.,., + x <.|..XT q [.a J S 3 a t m B H _ 0 bX.XbXJ ) B %XbXbXbXbXbXT ( `.L N | bXbXbXbXbXbX",
"bXbXbXbXbXS r B i [ > > < T bXp.f.n.1.F., : c <.( X 7 @ ^.X J a K a 7 u @ 1 / d bXjXcXa i 3 bXbXbXbXbX%X! l.M.B.N XXbXbXbXbXbXbX",
"bXbXbXbXbXH t p u y 4 > 1 H bXF.F.D.>Xb.: ; o.<._ @ u : ^.i t U H J F f s : / 8 ' i 6 r 1 a &X] N.V.J.m.n.G.!.C.V bXbXbXbXbXbXbX",
"bXbXbXbXbXC w A u y ; ; 1 Y hXk.P.k.D.:.: > #.<._ # C > (.L a f H K U S 7 @ E ; = 1 & b #.p.g.h.J.L.E.bXbXbXbXU B bXbXbXbXbXbXbX",
"bXbXbXbXbXH p a A i 4 > 2 ^ 8XP.H.k.k.v < ; #.<.E & & ; ^.U m t J K E a ( R v c =.8.0.8.t.F.>X4X8XrX/ bXbXbXbXC V bXbXbXbXbXbXbX",
"bXbXbXbXbXK p s N i < ; 2 G 4XP.%XC.j.- : : *.<.R @ @ : /.G Y K ^ P v -.r.0.<.0.t.V.A..XkXcXpXeX=X-X'.bXbXbXbXs C bXbXbXbXbXbXbX",
"bXbXbXbXbXE a ` D A 4 ; 3 I 4XF.;X-X%.8 1 ; %.1.Y 1 E Y ] b &.y.8.8.9.s.i.v C.^.W }.@X*XkXkX+X*XeXoXbXbXbXbXbXs K bXbXbXbXbXbXbX",
"bXbXbXbXbX{.d bX[.H 3 2 e ( tX~.gX8XV.j.2 1 b @.! x ;.e.<.0.d.b.H.A.M +X' > ^.Y i /.[ pXpXpX}.eXeXbXbXbXbXbXbXd ' bXbXbXbXbXbXbX",
"bXbXbXbXbXbXs _ bXbX8 2 e I ) Q.&X8XH.j.1 7 =.5.5.0.t.~._.:./.(.*X*X@XY E 1 U F U Y W +X[.A =XbXbXbXbXbXbXbXbXl | bXbXbXbXbXbXbX",
"bXbXbXbXbXbX.XV p V u q y N A W.wX$XF.V.9 2 x t.<.t.lXrXkX:.(. X@X+X/.i rX-X( T J /.[.@XXXE }.[ bXbXbXbXbXbX{.V bXbXbXbXbXbXbXbX",
"bXbXbXbXbXbXbXbXR a p D ) bXcX8XQ.P.F.>.1 1 j =.6.s.tXrXbXp././. X X[ F &X| N 3 i N i r Y Y I +XbXbXbXbXbXbXE B bXbXbXbXbXbXbXbX",
"bXbXbXbXbXbXbXbXbXbXbXbXbXbXbXbX7X_.S.J.7 1 -.t.9.r.! $.;.:.) [  XeX} *X-XXXoXB 4 ; ; < ; 1 J ^.[.' bXbXbXbXd C bXbXbXbXbXbXbXbX",
"bXbXbXbXbXbXbXbXbXbXbXbXbXbXbXbXbXQ.U.D.e 7 y.f.5.5.<.<.r.#XeXXX[ ` ^ -XiXuXaXeX%X4 X o o o X @ 2 p bXbXbX_ I } bXbXbXbXbXbXbXbX",
"bXbXbXbXbXbXbXbXbXbXbXbXbXbXbXbXbXbXhXE.w w p.f.s.<.1.,.-.m W /.+X*X&X-XaXdXaXaXaXuX'.o X X O @ ; r XXbX{.C K bXbXbXbXbXbXbXbXbX",
"bXbXbXbXbXbXbXbXbXbXbXbXbXbXbXbXbXbXbXbXa y J.p.:.v x N.4X[ ) ` }.=XuXdXsXsXsXaXuXuXiX*X8 O O X @ : D J S H bXbXbXbXbXbXbXbXbXbX",
"bXbXbXbXbXbXbXbXbXbXbXbXbXbXbXbXbXbXbXbXa m `.0 8 1 = R 7 5 7 u -XuXaXdXaXdXsXvXzXsXjXkXjX}.; < 2 r u s K bXbXbXbXbXbXbXbXbXbXbX",
"bXbXbXbXbXbXbXbXbXbXbXbXbXbXbXbXbXbXbXbXB V lX#Xf = = = ; ; q q aXaXsXvXvXzXsXvXjXjX Xa 2 f 8 7 8 m | bXbXbXbXbXbXbXbXbXbXbXbXbX",
"bXbXbXbXbXbXbXbXbXbXbXbXbXbXbXbXbXbXbXbXu V xXlXyXm 3 > > ; 2 5 oXsXsXzXzXzXXXS 8 t 8 8 3 8 R +XbXbXbXbXbXbXbXbXbXbXbXbXbXbXbXbX",
"bXbXbXbXbXbXbXbXbXbXbXbXbXbXbXbXbXbXbXbXp p xXxXxXxXW 3 ; ; X X ; V ;X) e q u t q 3 S .XkXbXbXbXbXbXbXbXbXbXbXbXbXbXbXbXbXbXbXbX",
"bXbXbXbXbXbXbXbXbXbXbXbXbXbXbXbXbXbXbXbXV B bXbXbXcXxX(.1 2 o + ; : 8 t e e S | fXxXbXbXbXbXbXbXbXbXbXbXbXbXbXbXbXbXbXbXbXbXbXbX",
"bXbXbXbXbXbXbXbXbXbXbXbXbXbXbXbXbXbXbXbXE B bXbXbXbXbXiXS ; 1 q q q t J @XlXbXbXbXbXbXbXbXbXbXbXbXbXbXbXbXbXbXbXbXbXbXbXbXbXbXbX",
"bXbXbXbXbXbXbXbXbXbXbXbXbXbXbXbXbXbXbXbXbXH a ^ [ a 8 y t 8 8 t ( -XzXbXbXbXbXbXbXbXbXbXbXbXbXbXbXbXbXbXbXbXbXbXbXbXbXbXbXbXbXbX",
"bXbXbXbXbXbXbXbXbXbXbXbXbXbXbXbXbXbXbXbXbX| S B B a p r m  XjXbXbXbXbXbXbXbXbXbXbXbXbXbXbXbXbXbXbXbXbXbXbXbXbXbXbXbXbXbXbXbXbXbX",
"bXbXbXbXbXbXbXbXbXbXbXbXbXbXbXbXbXbXbXbXbXbXbX{. .^.rXlXbXbXbXbXbXbXbXbXbXbXbXbXbXbXbXbXbXbXbXbXbXbXbXbXbXbXbXbXbXbXbXbXbXbXbXbX",
"bXbXbXbXbXbXbXbXbXbXbXbXbXbXbXbXbXbXbXbXbXbXbXbXxXbXbXbXbXbXbXbXbXbXbXbXbXbXbXbXbXbXbXbXbXbXbXbXbXbXbXbXbXbXbXbXbXbXbXbXbXbXbXbX",
"bXbXbXbXbXbXbXbXbXbXbXbXbXbXbXbXbXbXbXbXbXbXbXbXbXbXbXbXbXbXbXbXbXbXbXbXbXbXbXbXbXbXbXbXbXbXbXbXbXbXbXbXbXbXbXbXbXbXbXbXbXbXbXbX",
"bXbXbXbXbXbXbXbXbXbXbXbXbXbXbXbXbXbXbXbXbXbXbXbXbXbXbXbXbXbXbXbXbXbXbXbXbXbXbXbXbXbXbXbXbXbXbXbXbXbXbXbXbXbXbXbXbXbXbXbXbXbXbXbX",
"bXbXbXbXbXbXbXbXbXbXbXbXbXbXbXbXbXbXbXbXbXbXbXbXbXbXbXbXbXbXbXbXbXbXbXbXbXbXbXbXbXbXbXbXbXbXbXbXbXbXbXbXbXbXbXbXbXbXbXbXbXbXbXbX",
"bXbXbXbXbXbXbXbXbXbXbXbXbXbXbXbXbXbXbXbXbXbXbXbXbXbXbXbXbXbXbXbXbXbXbXbXbXbXbXbXbXbXbXbXbXbXbXbXbXbXbXbXbXbXbXbXbXbXbXbXbXbXbXbX",
"bXbXbXbXbXbXbXbXbXbXbXbXbXbXbXbXbXbXbXbXbXbXbXbXbXbXbXbXbXbXbXbXbXbXbXbXbXbXbXbXbXbXbXbXbXbXbXbXbXbXbXbXbXbXbXbXbXbXbXbXbXbXbXbX",
"bXbXbXbXbXbXbXbXbXbXbXbXbXbXbXbXbXbXbXbXbXbXbXbXbXbXbXbXbXbXbXbXbXbXbXbXbXbXbXbXbXbXbXbXbXbXbXbXbXbXbXbXbXbXbXbXbXbXbXbXbXbXbXbX",
"bXbXbXbXbXbXbXbXbXbXbXbXbXbXbXbXbXbXbXbXbXbXbXbXbXbXbXbXbXbXbXbXbXbXbXbXbXbXbXbXbXbXbXbXbXbXbXbXbXbXbXbXbXbXbXbXbXbXbXbXbXbXbXbX"
};
