/* XPM */
static char *result[] = {
/* columns rows colors chars-per-pixel */
"64 64 212 2 ",
"   c #0D264D",
".  c #0E294E",
"X  c #0E2C54",
"o  c #0E2C57",
"O  c #102F57",
"+  c #0F3156",
"@  c #0F325C",
"#  c #12365E",
"$  c #0F3464",
"%  c #0F3862",
"&  c #123561",
"*  c #123A64",
"=  c #113D6A",
"-  c #123F72",
";  c #13416D",
":  c #144573",
">  c #184773",
",  c #154877",
"<  c #194974",
"1  c #154A7A",
"2  c #194D7C",
"3  c #1C507D",
"4  c #164D81",
"5  c #14498E",
"6  c #1A5384",
"7  c #1A5688",
"8  c #1C5A8D",
"9  c #175183",
"0  c #1D5D92",
"q  c #1D5E9F",
"w  c #215A89",
"e  c #215F92",
"r  c #1C6195",
"t  c #1E649D",
"y  c #1E689E",
"u  c #23608F",
"i  c #236394",
"p  c #296895",
"a  c #256799",
"s  c #226A9D",
"d  c #2A6C9C",
"f  c #2E719F",
"g  c #30709B",
"h  c #0F4DB4",
"j  c #135CBB",
"k  c #1255B6",
"l  c #195AA6",
"z  c #1D67A1",
"x  c #1F6AA1",
"c  c #1564BB",
"v  c #1C74B3",
"b  c #1C75BC",
"n  c #1C7ABE",
"m  c #1C78B7",
"M  c #226CA2",
"N  c #206FAA",
"B  c #286FA2",
"V  c #2D74A4",
"C  c #2473AB",
"Z  c #2A76A9",
"A  c #2B79AB",
"S  c #2679AD",
"D  c #3375A2",
"F  c #337BAB",
"G  c #387CA7",
"H  c #2176B3",
"J  c #2A7EB3",
"K  c #247DBA",
"L  c #337EB1",
"P  c #407FA2",
"I  c #0F61C2",
"U  c #1163C3",
"Y  c #126EC9",
"T  c #196EC7",
"R  c #1C7AC1",
"E  c #1273CB",
"W  c #197CC9",
"Q  c #177FD0",
"!  c #2279C5",
"~  c #2477C6",
"^  c #3A80AD",
"/  c #2C84BC",
"(  c #2E8ABE",
")  c #3383B3",
"_  c #3D87B5",
"`  c #3B8BBA",
"'  c #3988B8",
"]  c #4B89AA",
"[  c #538FAF",
"{  c #438BB5",
"}  c #488EBA",
"|  c #448AB5",
" . c #4E95BC",
".. c #4490B9",
"X. c #5593B6",
"o. c #629ABA",
"O. c #1E80C6",
"+. c #1B86D4",
"@. c #198ADA",
"#. c #2185C6",
"$. c #2B8FCB",
"%. c #2286CC",
"&. c #358EC2",
"*. c #378FC4",
"=. c #3991C4",
"-. c #3692C6",
";. c #2487D4",
":. c #2494DB",
">. c #2B9BDE",
",. c #3E9DD4",
"<. c #3498D6",
"1. c #1E9AE1",
"2. c #259EE3",
"3. c #2CA3E4",
"4. c #2EA8E6",
"5. c #38B2EB",
"6. c #3DAAE2",
"7. c #4496C4",
"8. c #4A96C1",
"9. c #4B9BCA",
"0. c #4A9BC7",
"q. c #5696C5",
"w. c #539CC5",
"e. c #569AC7",
"r. c #619CCC",
"t. c #659ED2",
"y. c #4DA0CD",
"u. c #58A1C8",
"i. c #45A2D3",
"p. c #4BA4D3",
"a. c #4CACDC",
"s. c #47A6DD",
"d. c #53A6D2",
"f. c #53A9D5",
"g. c #5BABD3",
"h. c #55AEDA",
"j. c #5BA9D7",
"k. c #5BB3DE",
"l. c #5BB1DA",
"z. c #6BACCC",
"x. c #66A6C5",
"c. c #63ACD2",
"v. c #68ACD8",
"b. c #63B0D7",
"n. c #6BB5DB",
"m. c #68B4D9",
"M. c #75B9DB",
"N. c #49B6EB",
"B. c #46B9ED",
"V. c #4BBBED",
"C. c #48B1E9",
"Z. c #52BDED",
"A. c #59BBE8",
"S. c #57B7E4",
"D. c #51BFF1",
"F. c #65BDE5",
"G. c #6CBCE1",
"H. c #66BEE8",
"J. c #72BDE1",
"K. c #4FC2EF",
"L. c #54C1EF",
"P. c #5EC3EE",
"I. c #5DC9F3",
"U. c #56C6F2",
"Y. c #64C1EA",
"T. c #6BC4EB",
"R. c #6DC2E6",
"E. c #74C5EA",
"W. c #74C9EE",
"Q. c #7BCBEE",
"!. c #79C4E6",
"~. c #65C4F1",
"^. c #64CBF3",
"/. c #6CCCF3",
"(. c #69C7F1",
"). c #74CDF2",
"_. c #7BCEF2",
"`. c #6DD1F6",
"'. c #6DD1F8",
"]. c #72D3F6",
"[. c #7CD2F4",
"{. c #7DD8F7",
"}. c #7CD7F8",
"|. c #74D5F8",
" X c #82C9E6",
".X c #87D1EF",
"XX c #8BD2EF",
"oX c #92D2EC",
"OX c #83CFF0",
"+X c #84D4F5",
"@X c #8AD5F4",
"#X c #8DD9F7",
"$X c #85DAF9",
"%X c #8ADBF9",
"&X c #80D7F8",
"*X c #94DAF6",
"=X c #99DCF7",
"-X c #93DDF9",
";X c #9BDEF9",
":X c #91D5F2",
">X c #A1DFF9",
",X c #9DE1FA",
"<X c #97E1F9",
"1X c #A4E3FA",
"2X c #ABE4FB",
"3X c #AFE8FC",
"4X c #B1E6FA",
"5X c #B2EAFB",
"6X c #BCEAFB",
"7X c #CBEFFB",
"8X c #D0F4FB",
"z. c #3F824F",
/* pixels */
"z.z.z.z.z.z.z.z.z.z.z.z.z.z.z.z.z.z.z.z.z.z.z.z.z.z.z.z.z.z.z.z.z.z.z.z.z.z.z.z.z.z.z.z.z.z.z.z.z.z.z.z.z.z.z.z.z.z.z.z.z.z.z.z.",
"z.z.z.z.z.z.z.z.z.z.z.z.z.z.z.z.z.z.z.z.z.z.z.z.z.z.z.z.z.z.z.z.z.z.z.z.z.z.z.z.z.z.z.z.z.z.z.z.z.z.z.z.z.z.z.z.z.z.z.z.z.z.z.z.",
"z.z.z.z.z.z.z.z.z.z.z.z.z.z.z.z.z.z.z.z.z.z.z.z.z.z.z.z.z.z.z.z.z.z.z.z.z.z.z.z.z.z.z.z.z.z.z.z.z.z.z.z.z.z.z.z.z.z.z.z.z.z.z.z.",
"z.z.z.z.z.z.z.z.z.z.z.z.z.z.z.z.z.z.z.z.z.z.z.z.z.z.z.z.z.z.z.z.z.z.z.z.z.z.z.z.z.z.z.z.z.z.z.z.z.z.z.z.z.z.z.z.z.z.z.z.z.z.z.z.",
"z.z.z.z.z.z.z.z.z.z.z.z.z.z.z.z.z.z.z.z.z.z.z.z.z.z.                  . X z.z.z.z.z.z.z.z.z.z.z.z.z.z.z.z.z.z.z.z.z.z.z.z.z.z.z.",
"z.z.z.z.z.z.z.z.z.z.z.z.z.z.z.z.z.z.z.z.z.& O X . X $ $ & $ = - - $ & @ o o # = - : : = z.z.z.z.z.z.z.z.z.z.z.z.z.z.z.z.z.z.z.z.",
"z.z.z.z.z.z.z.z.z.z.z.z.z.z.z.z.z.` r 1 ; = ; : 1 4 9 w 0 Z Z ' *.*.` G D 8 9 : = : 1 1 1 1 , z.z.z.z.z.z.z.z.z.z.z.z.z.z.z.z.z.",
"z.z.z.z.z.z.z.z.z.z.z.z.z.z.8X1Xs.8.F y r 8 8 M C ' 7.j.J.G.!.XXXX=X=X;X Xc.| V a B 4 2 4 1 1 2 8 z.z.z.z.z.z.z.z.z.z.z.z.z.z.z.",
"z.z.z.z.z.z.z.z.z.z.z.z.z.5X<XR.a.7.) v z q M ` g.OX=X2X1X2X2X,XOX_._._._.W.G.u.{ ) C 8 4 7 2 1 8 r c z.z.z.z.z.z.z.z.z.z.z.z.z.",
"z.z.z.z.z.z.z.z.z.z.z.z.1XoX X .F F y t B  .n.*X2X3X2X1X1XP.:.Y Y I U Y :.6.f.G.R.F.0.L M 0 0 0 8 M s R z.z.z.z.z.z.z.z.z.z.z.z.",
"z.z.z.z.z.z.z.z.z.z.z.z.oXw.g p e e 8 f  ._.>X1X1X,XZ.;.E z.z.z.z.z.z.z.j %.>.:.Z.).R.p.y.' M r A H H x ~ z.z.z.z.z.z.z.z.z.z.z.",
"z.z.z.z.z.z.z.z.z.z.z.z.z.z.D } 9 i _ g.=X1X^.D.3.z.z.z.z.z.z.z.z.z.z.z.z.z.z.z.@.I./.(.R.n.7.' a } e.v K ~ z.z.z.z.z.z.z.z.z.z.",
"z.z.z.z.z.z.z.z.z.z.z.z.P : 3 z ) p.@X,X%XV.k z.z.z.z.z.z.z.z.z.z.z.z.z.z.z.z.z.z.z.@.4.^.Y.F.9.A C e.K m R ~ z.z.z.z.z.z.z.z.z.",
"z.z.z.z.z.z.z.z.z.z. X[ g d s f.h.4X-XL.R z.z.z.z.z.z.z.z.z.z.z.z.z.z.z.z.z.z.z.z.z.z.z.|.$X).F.) M } e.b b O.~ z.z.z.z.z.z.z.z.",
"z.z.z.z.z.z.z.z.z.z.x.z.D d M i.@X6X].;.z.z.z.z.z.z.z.z.z.z.z.z.z.z.z.z.z.z.z.z.z.z.z.z.z.|.<X&XS.9.) t.-.R W ! z.z.z.z.z.z.z.z.",
"z.z.z.z.z.z.z.z.z.z.p ] i _ ` l.;X-Xz.z.z.z.z.z.z.z.z.z.z.z.z.z.z.z.z.z.z.z.z.z.z.z.z.z.z.z.'.-X;X_.y.e.r.#.b R l z.z.z.z.z.z.z.",
"z.z.z.z.z.z.z.z.z.z.z.i F k.p..X1Xz.z.z.z.z.z.z.z.z.z.z.z.z.z.z.z.z.z.z.z.z.z.z.z.z.z.z.z.z.z.].I.*XH.d.t.$.b n t z.z.z.z.z.z.z.",
"z.z.z.z.z.z.z.z.z.z.w S h.A.Q.|.z.z.z.z.z.z.z.z.z.z.z.z.z.z.z.z.z.z.z.z.z.z.z.z.z.z.z.z.z.z.z.z.&XI.(.S.v.9.R R z 5 z.z.z.z.z.z.",
"z.z.z.z.z.z.z.z.z.8 S i.P./.%X1.z.z.z.z.z.z.z.z.z.z.z.z.z.z.z.z.z.z.z.z.z.z.z.z.z.z.z.z.z.z.z.z.z.#X~.A.n.r.#.n x 0 z.z.z.z.z.z.",
"z.z.z.z.z.z.z.z.8 M ( k.T.2X{.z.z.z.z.z.z.z.z.z.z.z.z.z.z.z.z.z.z.z.z.z.z.z.z.z.z.z.z.z.z.z.z.z.z.z.]./.[.v.$.O.x 8 z.z.z.z.z.z.",
"z.z.z.z.z.z.z.9 s ( b.F.%X1Xz.z.z.z.z.z.z.z.z.z.z.z.z.z.z.z.z.z.z.z.z.z.z.z.z.z.z.z.z.z.z.z.z.z.z.z.^.U._.k.<.%.M 8 4 z.z.z.z.z.",
"z.z.z.z.z.z.z.s J u.!.Q.2XI.z.z.z.z.z.z.z.z.z.z.z.z.z.z.z.z.z.z.z.z.z.z.z.z.z.z.z.z.z.z.z.z.z.z.z.z.z.-X].W.,.$.x 8 2 z.z.z.z.z.",
"z.z.z.z.z.z.8 Z e.z.E.2X<Xz.z.z.z.z.z.z.z.z.z.z.z.z.z.z.z.z.z.z.z.z.z.z.z.z.z.z.z.z.z.z.z.z.z.z.z.z.z.z.V.+XT.<.C 0 , z.z.z.z.z.",
"z.z.z.z.z./ C X.x.J.E.2X}.z.z.z.z.z.z.z.z.z.z.z.z.z.z.z.z.z.z.z.z.z.z.z.z.z.z.z.z.z.z.z.z.z.z.z.z.z.z.z.-XY.W.a.v n : z.z.z.z.z.",
"z.z.z.z.z.z.G o.n.!.;X1Xz.z.z.z.z.z.z.z.z.z.z.z.z.z.z.z.z.z.z.z.z.z.z.z.z.z.z.z.z.z.z.z.z.z.z.z.z.z.z.z.C.V.#Xa.#.0 ; z.z.z.z.z.",
"z.z.z.z.z.B o.8. Xk.2X`.z.z.z.z.z.z.z.z.z.z.z.z.z.z.z.z.z.z.z.z.z.z.z.z.z.z.z.z.z.z.z.z.z.z.z.z.z.z.z.z.z.^.=Xa.$.6 * z.z.z.z.z.",
"z.z.z.z.z.] ` {  .y.6X^.z.z.z.z.z.z.z.z.z.z.z.z.z.z.z.z.z.z.z.z.z.z.z.z.z.z.z.z.z.z.z.z.z.z.z.z.z.z.z.z.z.-X(.H.^ 4 * z.z.z.z.z.",
"z.z.z.z.z.[ M D 8.W.1XK.z.z.z.z.z.z.z.z.z.z.z.z.z.z.z.z.z.z.z.z.z.z.z.z.z.z.z.z.z.z.z.z.z.z.z.z.z.z.z.z.z.C.D.H.V : # z.z.z.z.z.",
"z.z.z.z.z.C 0 a u.@X+Xz.z.z.z.z.z.z.z.z.z.z.z.z.z.z.z.z.z.z.z.z.z.z.z.z.z.z.z.z.z.z.z.z.z.z.z.z.z.z.z.z.z.T D.i.y : 1 z.z.z.z.z.",
"z.z.z.z.z.0 1 D z.+XI.z.z.z.z.z.z.z.z.z.z.z.z.z.z.z.z.z.z.z.z.z.z.z.z.z.z.z.z.z.z.z.z.z.z.z.z.z.z.z.z.z.z.c V.E.z 7 , z.z.z.z.z.",
"z.z.z.z.z.6 : G M.E.%Xz.z.z.z.z.z.z.z.z.z.z.z.z.z.z.z.z.z.z.z.z.z.z.z.z.z.z.z.z.z.z.z.z.z.z.z.z.z.z.z.z.z.Q V.@X0 4 * z.z.z.z.z.",
"z.z.z.z.z.7 7 b.M.,X`.z.z.z.z.z.z.z.z.z.z.z.z.z.z.z.z.z.z.z.z.z.z.z.z.z.z.z.z.z.z.z.z.z.z.z.z.z.z.z.z.z.z.k V.@X/ 2 z.z.z.z.z.z.",
"z.z.z.z.z.2 8 q.g.1X`.z.z.z.z.z.z.z.z.z.z.z.z.z.z.z.z.z.z.z.z.z.z.z.z.z.z.z.z.z.z.z.z.z.z.z.z.z.z.z.z.z.z.h B.1XV = z.z.z.z.z.z.",
"z.z.z.z.z.r J ( g.1X|.z.z.z.z.z.z.z.z.z.z.z.z.z.z.z.z.z.z.z.z.z.z.z.z.z.z.z.z.z.z.z.z.z.z.z.z.z.z.z.z.z.z.U N.*XM * z.z.z.z.z.z.",
"z.z.z.z.z.8 F &.y.+X#Xz.z.z.z.z.z.z.z.z.z.z.z.z.z.z.z.z.z.z.z.z.z.z.z.z.z.z.z.z.z.z.z.z.z.z.z.z.z.z.z.z.z.j V.@XA # z.z.z.z.z.z.",
"z.z.z.z.z.z.s J 7.!.1X~.z.z.z.z.z.z.z.z.z.z.z.z.z.z.z.z.z.z.z.z.z.z.z.z.z.z.z.z.z.z.z.z.z.z.z.z.z.z.z.z.z.2.(._ 0 z.z.z.z.z.z.z.",
"z.z.z.z.z.z., r s m.4X].z.z.z.z.z.z.z.z.z.z.z.z.z.z.z.z.z.z.z.z.z.z.z.z.z.z.z.z.z.z.z.z.z.z.z.z.z.z.z.z.z.C.#X0.> z.z.z.z.z.z.z.",
"z.z.z.z.z.z., 2 r ) -X^.z.z.z.z.z.z.z.z.z.z.z.z.z.z.z.z.z.z.z.z.z.z.z.z.z.z.z.z.z.z.z.z.z.z.z.z.z.z.z.z.k L.-Xp.3 z.z.z.z.z.z.z.",
"z.z.z.z.z.z.z.2 , D W.-Xz.z.z.z.z.z.z.z.z.z.z.z.z.z.z.z.z.z.z.z.z.z.z.z.z.z.z.z.z.z.z.z.z.z.z.z.z.z.z.z.j Z.>X,.; z.z.z.z.z.z.z.",
"z.z.z.z.z.z.z.: ; : u.5X}.z.z.z.z.z.z.z.z.z.z.z.z.z.z.z.z.z.z.z.z.z.z.z.z.z.z.z.z.z.z.z.z.z.z.z.z.z.z.z.U }.W.=.< z.z.z.z.z.z.z.",
"z.z.z.z.z.z.z.z., 2 | E.&Xz.z.z.z.z.z.z.z.z.z.z.z.z.z.z.z.z.z.z.z.z.z.z.z.z.z.z.z.z.z.z.z.z.z.z.z.z.z.k 3.-XF.A X z.z.z.z.z.z.z.",
"z.z.z.z.z.z.z.z.1 * w | 1X4.z.z.z.z.z.z.z.z.z.z.z.z.z.z.z.z.z.z.z.z.z.z.z.z.z.z.z.z.z.z.z.z.z.z.z.z.z.j T._.p.d z.z.z.z.z.z.z.z.",
"z.z.z.z.z.z.z.z.z.= > g S._.z.z.z.z.z.z.z.z.z.z.z.z.z.z.z.z.z.z.z.z.z.z.z.z.z.z.z.z.z.z.z.z.z.z.z.z.U >.@Xh._ z.z.z.z.z.z.z.z.z.",
"z.z.z.z.z.z.z.z.z.z.> u 7.+XV.z.z.z.z.z.z.z.z.z.z.z.z.z.z.z.z.z.z.z.z.z.z.z.z.z.z.z.z.z.z.z.z.z.z.;.Y +XH.` B z.z.z.z.z.z.z.z.z.",
"z.z.z.z.z.z.z.z.z.z.* < a l.%XV.z.z.z.z.z.z.z.z.z.z.z.z.z.z.z.z.z.z.z.z.z.z.z.z.z.z.z.z.z.z.z.z.z.5._.;Xj.8 : z.z.z.z.z.z.z.z.z.",
"z.z.z.z.z.z.z.z.z.z.z.= < F -X2XV.z.z.z.z.z.z.z.z.z.z.z.z.z.z.z.z.z.z.z.z.z.z.z.z.z.z.z.z.z.z.z.5.D.+X_.A 8 z.z.z.z.z.z.z.z.z.z.",
"z.z.z.z.z.z.z.z.z.z.z.; : 0 d.2X2X^.z.z.z.z.z.z.z.z.z.z.z.z.z.z.z.z.z.z.z.z.z.z.z.z.z.z.z.z.z.3./.2X@X7.i z.z.z.z.z.z.z.z.z.z.z.",
"z.z.z.z.z.z.z.z.z.z.z.z., < Z j.+X6X1Xz.z.z.z.z.z.z.z.z.z.z.z.z.z.z.z.z.z.z.z.z.z.z.z.z.z.z.+.-X>X*Xe.> z.z.z.z.z.z.z.z.z.z.z.z.",
"z.z.z.z.z.z.z.z.z.z.z.z.z.* 6 Z d.Q.5X2Xz.z.z.z.z.z.z.z.z.z.z.z.z.z.z.z.z.z.z.z.z.z.z.z.+.D.1X#X1Xw.w z.z.z.z.z.z.z.z.z.z.z.z.z.",
"z.z.z.z.z.z.z.z.z.z.z.z.z.z.# 1 s 7.F.2X2X$Xz.z.z.z.z.z.z.z.z.z.z.z.z.z.z.z.z.z.z.z.z.D.1X).#X*Xe.; & z.z.z.z.z.z.z.z.z.z.z.z.z.",
"z.z.z.z.z.z.z.z.z.z.z.z.z.z.z.# , L p.Y.,X5X<X<Xz.z.z.z.z.z.z.z.z.z.z.z.z.z.z.z.z.%X2X}.;X;X+X] w 2 z.z.z.z.z.z.z.z.z.z.z.z.z.z.",
"z.z.z.z.z.z.z.z.z.z.z.z.z.z.z.z.# ; V a.a.Y.2X3X3X1Xz.z.z.z.z.z.z.z.z.z.z.z.^.2X-X%X1X*X_.l.G 3 # z.z.z.z.z.z.z.z.z.z.z.z.z.z.z.",
"z.z.z.z.z.z.z.z.z.z.z.z.z.z.z.z.z.* 2 7 *.a.A.[.,X3X7X5X<X|.'.`./.U.$X}.}.^.'.%X3X2X;Xl.8.D ; .   z.z.z.z.z.z.z.z.z.z.z.z.z.z.z.",
"z.z.z.z.z.z.z.z.z.z.z.z.z.z.z.z.z.z.z., 7 M / -.i.Y.:X>X6X2X1X=X-X}.+X-X>X2X1X=XQ.9.L w = * @ . z.z.z.z.z.z.z.z.z.z.z.z.z.z.z.z.",
"z.z.z.z.z.z.z.z.z.z.z.z.z.z.z.z.z.z.z.z.: 1 s v J / / i.g.k.f.l.b.c.J.M.M.c.z.^ 8 6 9 : * # z.z.z.z.z.z.z.z.z.z.z.z.z.z.z.z.z.z.",
"z.z.z.z.z.z.z.z.z.z.z.z.z.z.z.z.z.z.z.z.z.z.1 1 , 6 3 7 r x y s s d B V V a 7 6 1 = ; + z.z.z.z.z.z.z.z.z.z.z.z.z.z.z.z.z.z.z.z.",
"z.z.z.z.z.z.z.z.z.z.z.z.z.z.z.z.z.z.z.z.z.z.z.z.1 ; * * * = : , 9 1 1 1 6 ; * & O z.z.z.z.z.z.z.z.z.z.z.z.z.z.z.z.z.z.z.z.z.z.z.",
"z.z.z.z.z.z.z.z.z.z.z.z.z.z.z.z.z.z.z.z.z.z.z.z.z.z.z.z.z.z.z.* * z.z.z.z.z.z.z.z.z.z.z.z.z.z.z.z.z.z.z.z.z.z.z.z.z.z.z.z.z.z.z.",
"z.z.z.z.z.z.z.z.z.z.z.z.z.z.z.z.z.z.z.z.z.z.z.z.z.z.z.z.z.z.z.z.z.z.z.z.z.z.z.z.z.z.z.z.z.z.z.z.z.z.z.z.z.z.z.z.z.z.z.z.z.z.z.z.",
"z.z.z.z.z.z.z.z.z.z.z.z.z.z.z.z.z.z.z.z.z.z.z.z.z.z.z.z.z.z.z.z.z.z.z.z.z.z.z.z.z.z.z.z.z.z.z.z.z.z.z.z.z.z.z.z.z.z.z.z.z.z.z.z.",
"z.z.z.z.z.z.z.z.z.z.z.z.z.z.z.z.z.z.z.z.z.z.z.z.z.z.z.z.z.z.z.z.z.z.z.z.z.z.z.z.z.z.z.z.z.z.z.z.z.z.z.z.z.z.z.z.z.z.z.z.z.z.z.z.",
"z.z.z.z.z.z.z.z.z.z.z.z.z.z.z.z.z.z.z.z.z.z.z.z.z.z.z.z.z.z.z.z.z.z.z.z.z.z.z.z.z.z.z.z.z.z.z.z.z.z.z.z.z.z.z.z.z.z.z.z.z.z.z.z.",
"z.z.z.z.z.z.z.z.z.z.z.z.z.z.z.z.z.z.z.z.z.z.z.z.z.z.z.z.z.z.z.z.z.z.z.z.z.z.z.z.z.z.z.z.z.z.z.z.z.z.z.z.z.z.z.z.z.z.z.z.z.z.z.z.",
"z.z.z.z.z.z.z.z.z.z.z.z.z.z.z.z.z.z.z.z.z.z.z.z.z.z.z.z.z.z.z.z.z.z.z.z.z.z.z.z.z.z.z.z.z.z.z.z.z.z.z.z.z.z.z.z.z.z.z.z.z.z.z.z."
};
